<svg id="Layer_1" data-name="Layer 1" xmlns="http://www.w3.org/2000/svg" viewBox="0 0 300 150"><title>Artboard 1</title><path d="M120.66,32.78l0,.08,0,.08,0,0a6.86,6.86,0,0,1,.63-.94c0,.48,0,.94.37.51.2-.21.41-.41.62-.61V30.71l0,1.18a17.19,17.19,0,0,1,1.38-1.11,3.47,3.47,0,0,0,.33,1.14,3.44,3.44,0,0,1,.62-.43l.06-2.58.12,2.49.13-.06-.11.63v.24h0l.11-.16c1.43-2.09,2.88-4.17,4.26-6.3a60.94,60.94,0,0,1-3.74,5.94l3.51-2.88-4,3.55-.27.39c.21,0,.84-.66,1.42-1a1.06,1.06,0,0,1-.1.67c-.09.24-.08.35,0,.33l.08-.07.23-.23.23-.23.22-.22.23-.23.22-.22.22-.23.22-.23.22-.22.21-.23.2-.22.21-.23.19-.23.2-.23.18-.23.18-.23.18-.23.17-.23.15-.23.15-.23.14-.23.13-.23.12-.23.11-.23,0,0,0,0,0,0-.05,0,0,0h-.26l-.06,0-.06,0-.05,0,0,0,0-.06,0-.06V26.9l.11-.1,0,0,0,0,0,0,0,0,0,0,0,0,0,0,0,0,0,0,0,0,0,0,0,0,0,0,0,0,0,0,0,0,0,0h0l0,0,0,0h-.22l-.07,0L130,26.2l0-.06,0-.06,0-.05v-.24l0,0,0,0,0-.05,0-.05,0-.06,0-.06,0-.07,0-.06,0-.05,0-.05,0-.05,0-.05,0-.05,0-.05,0,0,0-.05,0-.06V24h0l0,0,0,0,0,0,0,0,0,0,0,.05,0,0,0,0,0,0,0,0,0,.05,0,0,0,0,0,.05,0,0,0,.05,0,.05,0,.05,0,.05,0,.05,0,.06,0,.05,0,.06,0,.06,0,.05,0,.06,0,.05,0,.05,0,0,0,0,0,0,0,0,0,0,0,0,0,0,0,0,0,0,0,0,0,0h-.23l0,0-.05,0,0,0,0,0,0,0h0l0,0,0,0,0,0,0,0,0,0,0,0,0,0,0,0,0,0,0,0,0,0,0,0,0,0,0,0,0,0,0,0,0,0,0,0,0,0,0,0,0,0,0,.05,0,.08,0,.08,0,.06,0,.06,0,.06,0,0,0,0,0,0-.06,0-.07,0-.08,0h-.08l-.08,0-.07,0,0,0,0,0,0,0,0,0,0-.05,0-.05,0-.05v-.26l0,0,0,0,0,0,0,0,0,0,0,0,0,0,0,0,0,0,0,.05,0,0,0,0,0,.05,0,.05,0,.05,0,.05,0,.05,0,.06,0,.06,0,.06,0,.06,0,.06,0,.06,0,.07,0,.07,0,.06,0,.06,0,.06,0,.05,0,.05,0,0,0,0,0,0,0,0,0,0,0,0-.05,0-.06,0-.07,0h-.08l-.07,0-.06,0,0,0,0,0,0,0,0,0v-.26h0l0,0-.06,0-.05,0,0,0-.05,0-.05,0,0,0,0,0,0,0,0,0,0,0,0,.05,0,.06,0,.06,0,.06,0,.07,0,.07,0,.07,0,.08,0,.08,0,.08,0,.09,0,.09,0,.1,0,.11,0,.11,0,.11,0,.1,0,.09,0,.08,0,.07,0,.07,0,.06,0,.05,0,0,0,0,0,0,0,0,0,.05-.08,0h-.1l-.09,0-.06,0,0,0,0,0,0,0,0,0,0,0v-.38l0,0v-.2l0,0V29.3l0,0,0,0,0,0v0l0,0,0,0,0,0,0,0,0,0,0,0,0,0,0,0,0,0,0,0,0,0,0,0,0,0,0,0,0,0,0,0,0,0,0,0h-.07l0,0,0,0,0,0,0,0,0,0,0,0,0,0,0,.05,0,.06,0,.07,0,.07,0,.07,0,.08,0,.08,0,.09,0,.1,0,.05v.42l0,0,0,0,0,0,0,0,0,0,0,0h-.23v0l0,0,0,0v.1l0,0v1.17l0,.05,0,.06-.06.07-.08.05-.09,0-.08,0-.06,0,0,0,0,0,0,0,0,0,0,0,0,0,0,0,0,0,0,.08,0,.09,0,.09,0,.09,0,.08,0,.08,0,.08,0,.08,0,.09,0,.07,0,.08,0,.08v.3l0,.08Zm51.11,85.63,0,0,0,0,0,0,0,0,0,0,0,0,0,0,0,0,0,0,0,0,0,0,0,0,0,0,0,0,0,0,0,0,0,0,0,0-.05,0h0l-.05,0h0l-.06,0,0,0-.07,0-.06,0h-.06l-.06,0-.05,0h-.05l0,0,0,0,0,0,0,0,0,0,0,0,0,0,0,0,0-.05,0-.07v-.07l0-.07,0-.06,0,0,0,0,0,0,0,0,0,0h-.85l-.12-.09,0,0,0,0,0,0,0,0,0,0,0-.07v-.12l0-.07,0-.05,0,0,0,0,0,0,0,0,0,0,0,0,0,0h0l-.24-.07-.24-.06-.24-.06-.26,0-.25,0-.27,0-.27,0-.28,0h-.28l-.28,0h-1.76l-.3,0h-.3l-.31,0-.31,0h0c-.43.1-.64.18-.08.37l.79.45-.12.05,3.11-.33-3.83.58-.11,0a.74.74,0,0,0,0,.11,54.22,54.22,0,0,1,6.21,1.1c-2-.32-4-.59-6.08-.85a3.92,3.92,0,0,0,.43.55l-.84.19,1.32,1.31L163.29,118a12.66,12.66,0,0,1-1.45.21c-.51,0-.2.27.15.55a6.08,6.08,0,0,1-1.35-.15l1.27,1.23-1.45-1.28-.48-.15c-.73-.35-.66.17.3.89a4.22,4.22,0,0,1-1.13,0l0,.08,0,.09,0,.08,0,.07,0,.06.05.06,0,.06.06,0,.06,0,.06,0,.07,0,.07,0,.08,0,.07,0,.08,0,.07,0,.08,0,.08,0,.09,0,.08,0,.09,0,.07,0V120l0-.06,0-.06.07-.06.09,0h.08l.06,0,0,0,0,0,0,0,0,0,0,0,0,0,0,0,0,0,0,0v0l0,0,0,0,0,0,0,0,0,0,0,0,0,0,0,0,0,0,0,0,0,0,0,0,0,0,0,0,0,0,0,0,0,0,0,0h0l0,0h.1l0,0h0v0l0,0,0,0,0,0,0,0,0,0,0,0,0,0h.2l0,0,0,0,0,0,0,0,0,0,0,0,0,0,0,0,0,0,0,0,0,0,0,0,.08,0,.08,0,.08,0,.07,0,.07,0,.07,0,.06,0,.06,0,.06,0h0l0,0h.2v-.21l0-.05v0l0,0,0,0v0l0,0v0l0,0,0,0v0l0,0v0l0,0v0l0,0v0l0,0v0l0,0V120l0,0v-.08l0,0v-.07h0l0,0v0l0,0,0,0,0,0,0,0,0,0,0,0,0,0,0,0v0l0,0v-.18l0-.08.07-.07.08,0h.16l.05,0,0,0,0,0,.05,0,.06,0,.06,0,.07,0,.07,0,.08,0,.1.06.1.05.09,0,.1,0,.09,0,.09,0,.08,0,.08,0,.08,0,.07,0,.08,0,.07,0h.62l.05,0,.05,0,.05,0,.05,0,.05,0h0l0,0,0,0,0,0,0,0,0,0,0,0,0,0,0,0v-.17l0-.07,0-.06.06,0,.05,0h.28l.05,0h0l.05,0h.05l.06,0,.06,0,.06,0,.06,0,.06,0,.07,0,.06,0,.06,0,.06,0,.06,0,.05,0h.89v0l0,0,0,0,0,0,0,0,0,0,0,0,0,0,0,0,0,0v-.19l0-.07.05-.07.06,0,.06,0,.06,0h.25l.07,0h.07l.07,0,.09,0,.05,0,0,0h.08l0,0,0,0h.09l0,0H169l0,0h.31l0,0v-.27l0,0,0,0,0,0,0,0,0,0,0,0,.05,0h.51l.06,0h1.53l0,0ZM173.3,110l0,0,0,0,0,0,.06,0,.05,0,.06,0,.06,0,.07,0,.07,0,.07,0,.07,0,.07,0,.08,0,.08,0,.08,0,.07,0h-.5l0,0,0,0,0,0,0-.07v-.15l0-.06,0,0,0,0,0,0,0,0,0,0,0,0,0,0,0,0,0,0,0,0,0,0,.05,0,0,0,.06,0,.06,0,.06,0,0,0,0,0,.05,0,0,0,0,0,.05,0,0,0,0,0,.05,0,0,0,0,0,0,0,0,0,0-.05,0,0,0-.05,0,0,0-.06,0,0,0-.06,0-.06,0-.06,0-.06,0-.07,0-.06,0-.06,0-.07,0-.06,0-.07,0,0,0,0-.1,0-.1,0-.1,0-.1,0-.09,0H174l-.1,0-.09,0-.09,0-.09,0-.09,0-.09,0-.09,0-.09,0-.09,0-.09,0-.1,0-.07,0-.06,0-.06,0-.06,0h-.33l-.06,0-.05,0-.05,0,0,0,0,0,0-.06,0-.05v-.27l0-.06,0-.06,0-.06,0,0h-.6l-.06,0-.05,0-.05,0-.06-.06,0-.07v-.22l0-.06,0-.06h-.18l-.08,0-.08,0-.07,0-.08,0-.08,0-.08,0-.07,0-.08,0-.08,0-.08,0-.08,0-.08,0-.07,0-.08,0-.08.05-.09,0-.08,0-.08.06-.08.06-.08.06-.09.06-.08.05-.09.06-.07.06-.08.06-.08.06-.08.06-.07.05-.07.05-.07,0-.07,0-.06,0-.06,0-.06,0-.06,0h-.19l-.08,0-.07-.06-.05-.08,0-.08v-.13l0-.06,0,0,0-.06,0-.06,0-.05,0-.06,0-.05.06-.07.06-.06.07-.07.07-.07.1-.08.06,0,0,0,0,0,0,0,0,0,0,0,0,0,0,0,0,0,0,0,0,0,0,0,0,0,0,0,0,0,0,0,0,0,0,0,0,0,0,0,0,0,0,0,0,0,0,0,0,0,0,0,0,0,0,0,0,0,0,0,0-.06,0-.1.07-.07,0,0,0,0,0,0V105l0,0v-.62h0l0,0-.05,0,0,0,0,0-.05,0,0,0,0,0,0,0,0,0-.05,0,0,0,0,0,0,0,0,0,0,0,0,0,0,0,0,0,0,0,0,0,0,0,0,0,0,0,0,0,0,0,0,0,0,0,0,0,0,.06,0,0,0,0,0,0,0,0,0,0,0,0,0,0,0,0,0,0,0,0,0,0,0,0,0,0h-.16l-.05,0-.05,0,0,0,0,0,0,0,0,0,0,0V105h0l0,0,0,0,0,0,0,0,0,0,0,0-.05,0-.05,0,0,0,0,0-.05,0-.05.05-.05,0,0,0,0,0,0,.06,0,.06,0,.05,0,0,0,0,0,0,0,0,0,0,0,0,0,0,0,0,0,0,0,0,0,0-.05,0h-.13l-.08,0-.06,0,0-.06,0,0,0,0v-.07h0l-.1.07-.11.08-.12.09-.12.1-.13.12-.13.13-.13.14-.14.14-.14.15-.15.16-.15.17-.15.18-.16.18-.16.18-.16.2-.16.19-.16.2-.16.19-.17.21-.16.19-.17.2-.16.2-.17.2-.15.19-.17.19-.16.19-.16.18-.15.18-.1.13-.1.12-.09.12-.09.1-.08.09-.07.09-.08.08-.07.06-.07.07-.06.05-.06.05-.06,0-.05,0-.06,0-.05,0h-.22l-.08,0-.06-.06,0-.06,0-.06v0l-.05,0c-1,.43-.82.79.19.36a4.81,4.81,0,0,1,2.46-.38l1-1,1-2.69-.62,2.3,3.83-3.86-4,4.36,0,0h0l-.92.92.09,0c-.83.46-.22.56.6.61a4,4,0,0,0-.29.3l2.22-1,.07-.06a51.46,51.46,0,0,0,4.27-4.2c-1,1.44-3.55,3.65-3.66,4a74.29,74.29,0,0,1,8.07-3.25c-2.68,1.06-5.39,2.28-8,3.45,2.12,0,4.24-.13,6.35-.35a34.76,34.76,0,0,1-6.86.58l-2.64,1.19c0,.14.17.18.51.15a4,4,0,0,1,2.07.28q3-.47,5.91-.9a48,48,0,0,1-5.56,1.08,3.65,3.65,0,0,1,.48.34l-.32.28,2.15.46-2.28-.35a4.18,4.18,0,0,1-1.16.69h.56l.17,0,.17,0,.16,0,.18,0,.19,0,.18,0,.18,0h2.35l.15,0,.15,0,.15,0,.15,0,.14,0,.13,0,.14,0,.12,0,.13,0,.13,0h0l-.08,0-.08,0-.07,0-.07,0-.07,0-.06,0,0,0-.06,0,0,0,0-.05,0-.05,0-.06,0-.06v-.15l0-.08.05-.07.05,0,.06,0,.06,0h1.94l0,0,0,0,0,0,0,0,0-.05v-.13l0-.07,0-.05,0,0,0,0,0,0,0,0,0,0h.05l0,0,0,0,.07,0,.07,0,.07,0,.07,0,.07,0,.07,0,.07,0,.07,0,.08,0,.07,0,.07,0,.07,0,.07,0,.07,0,.07,0,.07,0,.07,0,.07,0,.07,0,.07,0,.08,0,.07,0,.08,0,.07,0,.08,0,.07,0,.07,0,0,0,0,0,0,0,0,0,0,0,0,0,0,0,0,0,0,0,0,0,0,0,0,0,0,0,0,0,0,0,0,0,0,0,0,0,0,0,0,0,0,0,0,0,0,0-.21-.24.28-.14h0l0,0H174l0,0h0l0,0h0l0,0h0l0,0,0,0,0,0,0,0,0,0,0,0h-.71l-.07,0-.07,0-.07,0-.08-.06-.05-.1v-.12l0-.08,0-.06Zm18.81-10.64-.05,0,0,0-.05,0h0l-.05,0h-1l-.06,0h-.07l-.07,0h-.53l-.05,0,0,0-.05,0,0-.06,0-.06,0-.08V98.9l0,0,0,0,0,0,0,0h-.08l0,0,0,0,0,0,0,0,0,0,0,0,0,0,0,0,0,0,0,0,0,0,0,0,0,0,0,0,0,0-.12.09-.15,0H189l-.06,0-.06,0,0,0-.05,0-.05,0,0-.05,0-.06,0-.07v-.17l0-.06,0,0,0,0,0,0,0,0,0,0,0,0h0l-.25.06-.25.07-.25.08-.26.09-.25.09-.25.11-.26.12-.26.12-.26.13-.26.13-.26.14-.26.15-.27.15-.26.16-.27.15-.27.17-.26.17-.27.17-.27.17-.27.18-.27.18-.05,0a1,1,0,0,0,.4-.06l1-.06a4.63,4.63,0,0,1-.51.7l3-2.23-3.09,2.48.18.1a52.47,52.47,0,0,1,6-2.17c-1.89.73-3.77,1.51-5.65,2.29a3.6,3.6,0,0,0,.51.15c-.26.29-.53.57-.8.84l1.91.49-2-.38a12.05,12.05,0,0,1-1.08.92c-.47.32,0,.38.48.42a6.42,6.42,0,0,1-1.24.64l1.6.4-1.74-.35a7.07,7.07,0,0,1-.68.19c-.89.12-.5.55.82.65a4.69,4.69,0,0,1-.92.65h0l.07,0,.08,0,.07,0,.07,0h.73l.09,0,.09,0,.09,0H183v0l0,0,0,0,0,0,0,0,0,0,0,0,0,0v-.13l0-.09.07-.07.07,0h.25l0,0h0l0,0,0,0,0,0h1v-.15l0,0,0,0,0,0,0,0,0,0,0,0,0,0h1.15l.06,0,0,0h.09l0,0h0l0,0h0v0l0,0,0,0v0l0,0,0,0,0,0,0,0,0,0,0,0,0,0,0,0,0,0,0,0,0,0,0,0,0,0,0,0,0,0,0,0,0,0,0,0,0,0,0,0,0,0h0l0,0,0,0,0,0,0,0h-.05l0,0,0,0,0,0h0l0,0h0l0,0h0l0,0,0,0h0l0,0h0l0,0,0,0,0,0,0,0,0,0,0,0,0-.07v-.1l0-.1.06-.07.05,0,.05,0h1.23l.1,0,.09,0,.09,0h.08l.08,0,.07,0,.07,0,.07,0,.06,0,.06,0,.06,0,.05,0,0,0,0,0,0,0,0,0,0,0,0,0,0,0,0-.05,0,0,0-.05h0l-.05,0,0,0h0l0,0,0,0,0,0,0,0,0,0,0-.05,0-.06v-.15l0-.07,0-.06,0,0,0,0,0,0,0,0,0,0h0l0,0H188l.07,0,.06,0,.06,0,.06,0,.06,0,.06,0,.06,0,.06,0,.06,0,.05,0,.06,0,0,0,.05,0,.05,0,0,0,.06,0,.05,0,.05,0,0,0,0,0h0l-.06,0-.05,0-.06,0-.05,0,0,0,0,0,0,0,0,0,0,0,0,0,0-.06,0-.07v-.16l0-.07,0-.06,0,0,.05,0,.05,0,.06,0,.06,0,.07,0,.07,0,.09,0,.09,0h.38l0,0h.14l0,0h.09l0,0h0l0,0,0,0h0l0,0h0l0,0,0,0,0,0,0-.05v-.18l0-.05,0-.05,0,0,0,0,0,0,0,0,0,0,0,0,0,0,0,0,0,0,.05,0,0,0,.06,0,.06,0,.07,0,.06,0,.06,0,.06,0,.07,0,.06,0,.06,0,.06,0,.05,0,.06,0,.06,0,.06,0,.05,0,.06,0,.06,0,.06,0,.05,0,.05,0,.05,0,.06,0,0,0,.06,0,.05,0,.05,0,.05,0,.06,0h0l0,0Zm6.55-17H198l0,0h-.05l-.05,0,0,0-.06,0,0,0-.05,0-.05,0,0,0-.05,0-.05,0-.05,0-.06,0-.07,0-.05,0-.06,0-.05,0-.05,0,0,0-.05,0,0,0h-.25l-.06,0-.06,0-.05-.05,0-.06,0-.06v-.28h0l0,0,0,0,0,0,0,0,0,0,0,0,0,0,0,0,0,0,0,0,0,0,0,0,0,0,0,0,0,0,0,0,0,0-.08.12-.15,0h-.23l-.06,0-.05,0-.05,0,0-.05,0-.06,0-.05,0-.06v-.25l0,0,0,0v0l0,0-.23.13-.23.14-.21.15-.22.15-.22.17-.22.17-.21.18-.22.19-.21.2-.21.2-.21.21-.21.22-.21.22-.21.22-.21.23-.21.23-.21.24-.21.24-.2.25-.21.24-.2.25-.2.24-.21.25-.21.25-.2.24-.13.16a3.61,3.61,0,0,1-.39,1.29,2.81,2.81,0,0,0-.34.56l1.7-1.39L194,83.95l-2.59,3.73a62.23,62.23,0,0,1,5.63-4.19c-2,1.54-4,3.14-5.95,4.74l-.15.13h0l3.3-.1-3.52.35h-.11l-1.3,1.06.06,0a1,1,0,0,1,.65-.19c-.21.58-.69,1.23-.75,1.49h.4l0,0,.94-.3-.1.28,2.09-.08-2.13.18a3.26,3.26,0,0,1-.31.62,3.27,3.27,0,0,0,1.17.16q-.24.44-.5.88H191l.07,0,.07,0,.08,0,.07,0,.08,0,.08,0,.08,0,.08,0,.08,0,.09,0,.09,0,.08,0,.08,0,0,0,0,0,0,0,0,0,0,0,0,0,0,0,0,0,0-.05,0-.07v-.09l0-.09.06-.06.06,0h1l0,0h.07l0,0h.07l0,0h.06l0,0,0,0,0,0V91l0,0,0,0,0,0,0,0,0,0h.41l.05,0,.09,0,.09,0,.08,0,.08,0,.07,0,.07,0,.06,0,.06,0,.05,0,0,0,0,0,0,0,0,0,0,0,0,0h0l0,0h0l0,0,0,0,0,0h0l0,0,0,0-.05,0,0,0,0,0h0l0,0h0l0,0,0,0h0l0,0h-.07l0,0h-.88l0,0h0l0,0,0-.06,0-.09v-.1l0-.08,0-.06,0,0,0,0,0,0,0,0,.05,0,.06,0,.06,0,.07,0,.08,0,.09,0,.09,0,.12,0,.11,0,.11,0,.09,0,.09,0,.09,0,.08,0,.08,0,.07,0,.07,0,.07,0,.06,0,.06,0,.05,0,0-.05,0,0,0-.05,0,0,0,0,0,0,0-.06,0-.05,0-.05,0-.06,0,0,0-.06,0-.05h-.26l0,0h0l-.05,0,0,0,0-.05,0-.07V87.3l0-.06,0,0,0,0,0,0,0,0,0,0,0,0,0,0,.05,0,0,0,.06,0,.06,0,.06,0,.07,0,.07,0,.06,0,.06,0,.06,0,.06,0,.05,0,.05,0,0,0,.06,0,0,0,0,0,.05,0,0,0,0,0,0,0,0,0,0,0,0,0,0,0,0,0,0,0,0,0,0,0,0,0h-.32l-.06,0h0l-.05,0-.05,0-.05,0,0,0,0-.06,0-.07v-.16l0-.07,0-.06,0,0,0,0,0,0,.05,0,.06,0,.06,0,.07,0,.08,0,.05,0,0,0,0,0,0,0,0,0,0,0,0,0,0,0,0,0,0,0,0,0,0,0,0,0,0,0,0,0,0,0,0,0,0,0,0,0,0,0,0,0,0,0h0l0,0,0,0,0,0,0,0,0-.06,0-.06V84l0,0,0,0,0,0,0,0,0,0,0,0,0,0,0,0,0,0,0,0,0,0,.05,0,0,0,.06,0,.05,0,.05,0,.05,0,.05,0,0,0,0,0,.05,0,.05,0,0,0,.05,0,0,0,0,0,0,0,0,0,0,0,0,0,0,0,0,0,0,0,0,0,0,0,0,0,0-.05,0,0,0,0h0Zm.39-13h-.16l-.05,0h0l-.05,0,0,0,0,0-.05,0-.05,0,0,0,0,0,0,0,0,0,0,0,0,0,0,0,0,0,0,0,0,0,0,0,0,0,0,0,0,0,0,.05,0,.06-.05,0,0,0,0,0,0,0,0,0,0,0,0,0,0,0,0,0,0,0h-.17l-.06,0-.07,0-.05,0,0-.05,0-.06,0,0V70h0l0,0,0,0,0,0,0,0,0,0,0,0,0,0,0,0,0,0,0,0,0,0,0,0,0,0,0,0v0l0,0,0,0-.05.14-.13.07-.06,0,0,0h-.24l-.06,0-.06,0,0,0,0-.05,0-.05,0-.05v-.34l0,0-.18.18-.17.2-.17.21-.16.21-.15.22-.16.23-.15.24-.15.24-.14.25-.14.25-.14.26-.14.27-.13.27,0,0,.11,0c-.06,1-.71,2.29.09,1.49l.18-.12.94-2.58-.78,2.47.48-.32a4.68,4.68,0,0,1-.06.69,43.85,43.85,0,0,1,3.12-4.17c-1.06,1.51-2.09,3-3.13,4.58a3.39,3.39,0,0,0,1.09-.18c-.1.47-.21.92-.34,1.37l1.11-.39-1.14.49c-.12.38-.25.77-.4,1.14s.17.32.61.12a6.25,6.25,0,0,1-1.19,1.66l1.34-.47-1.47.59h0c-.69.55-.15.72,1,.14a5.22,5.22,0,0,1-.83,1.58h0l.07,0,.07,0,.07,0,.07,0,.07,0,.07,0,.06-.05.07-.06.06-.06.07-.06.07-.06.07-.07.07-.06.07-.06.07-.07.07-.05h-.07l0,0,0,0,0,0,0,0,0,0,0,0,0,0,0-.07,0-.09,0-.09,0-.08,0,0,0,0,0,0,0,0,0,0h.29l0,0,0,0,0,0,0,0,0,0,0,0,0,0,0,0,0,0,0,0,0,0,0,0,0,0,0,0,0,0,0,0,0,0,0,0,0,0,0,0,0,0,0,0,0,0,0,0,0,0,0,0,0,0,0,0,0,0V79.1l0,0,0,0,0,0,0,0,0,0,0,0,0,0,0,0h0l0,0H197l0,0,.07-.05.07-.06.07-.06.06-.05.06,0,.06-.05,0,0,0,0,0,0,0,0,0,0,0,0,0,0,0,0v-.08h-1.83l-.05,0-.07,0-.06-.08,0-.1v-.09l0-.07,0,0,0,0,0,0,0,0,0,0,.05,0,.05,0,.06,0,.07,0,.07,0,.08-.05.1-.07.1-.07.09-.07.08-.07.08-.06.07-.07.07-.07.06-.07.05-.06.05-.07.05-.06,0-.06,0-.06,0-.06,0-.06,0-.06,0-.06,0-.06,0-.06,0-.06,0-.06v-.34h-.13l0,0h-.18l-.05,0-.05,0-.06,0-.05,0,0-.07v-.19l0,0,0,0,0,0,0,0,0,0,0,0,0,0,0,0,0,0,0,0,.05,0,.05-.05.05,0,0,0,0-.05,0,0,0,0,0-.05,0,0,0-.05,0,0,0-.06,0,0,0,0,0-.06,0-.05,0,0,0,0,0-.06,0-.05,0-.05,0-.06,0-.05,0-.06,0-.05v0h-.59l-.06,0-.06,0-.06-.06,0-.07,0-.08v-.07l0-.07,0-.06,0-.05,0-.06,0-.06,0-.06,0-.06.06-.07.06-.07,0,0,0,0,0,0,0,0,0,0,0,0,0,0,0,0,0,0,0,0,0,0,0,0,0,0,0,0,0,0,0,0,0,0,0,0,0,0,0,0,0,0,0,0h-.06l-.05,0,0,0,0,0,0,0,0,0,0-.05,0-.06v-.21l0,0,0,0,0-.05,0,0,0,0,0,0,0,0,0,0,0,0,0-.05,0-.05,0-.05,0-.05,0-.05,0-.06,0-.05,0-.06,0-.05,0-.05,0-.06,0-.06,0-.05,0-.06,0-.05,0-.06,0-.06,0-.05,0-.06,0-.06,0-.06,0-.05,0-.06,0-.06,0-.06,0-.06,0-.05v0h-.06Z"/><path d="M188.85,89.62v-.08l0,0,0,0,0,0,0,0,0,0,0,0,0,0,0-.05,0-.05,0-.05,0-.06,0-.06,0-.05,0,0,0-.05,0-.06,0-.06,0-.06,0-.06,0-.06,0-.06,0-.06,0-.07v-.06l0-.07,0-.07v-.07l0-.07v-.07l0-.07V87l.05.08.07.12.07.11v0l.55-.66-.07-.1-.08-.13-.07-.12-.07-.12-.07-.13v0c-.19.22-.37.45-.54.67l.05.1.07.13h0l-.1,0-.1,0-.1,0-.09,0-.1,0-.09,0-.09,0-.09,0-.09,0-.09,0-.08,0-.09,0-.08,0-.08.05-.08.06-.07.06-.08.06-.07.06-.08.07-.07.06-.07.07-.07.06-.07.08-.07.07-.06.08-.07.07-.06.08-.07.08-.06.08,0,.05,0,.06,0,0,0,.05,0,0,0,0,0,0,0,0,0,0-.06,0-.06,0h-.2l-.06,0,0,0,0,0,0,0,0-.05,0-.05,0-.05,0-.06,0-.06v-.16l0,0-.06,0-.05,0-.05,0-.06,0,0,0-.06,0-.05,0,0,0-.05,0-.06,0h-.14l-.08,0-.07,0-.06-.06,0-.07,0-.07v-.12l0,0-.06,0-.06.06-.06.05-.06.07-.05.06-.05.07-.06.07-.06.07,0,.08-.05.07,0,.08-.05.08-.05.08,0,.08-.05.09,0,.09,0,.09-.05.09,0,.09,0,.09,0,.1,0,.09,0,.1-.05.1,0,.1,0,.09,0,.09,0,.1,0,.09,0,.09,0,.08,0,.07,0,.07,0,.06,0,.06-.05,0,0,0,0,0-.06,0-.07,0h-.18l-.09,0-.06-.06,0-.07,0-.07v-.4l0-.08,0-.08,0-.1,0-.09,0-.11,0-.12,0-.07,0,0,0,0,0,0,0,0,0,0,0,0,0,0,0,0v0l0,0,0,0v-.95l0-.12,0-.09v-.29l0,0v0l0,0v0l0,0,0,0,0,0,0,0,0,0,0,0,0,0,0,0,0,0,0,0,0,0h0l0,0,0,0,0,0,0,0,0,.05,0,0,0,0,0,0,0,0,0,.05,0,0,0,0,0,.05,0,0,0,0,0,0,0,0,0,0,0,0v.05l0,0v.48l0,.06v.06l0,.06v.09l0,0v0l0,0,0,0,0,0,0,0,0,0,0,0,0,0-.06,0-.05,0h-.13l-.05,0-.05,0,0,0,0,0,0,0,0,0,0,0,0,0,0,0,0,0,0,0,0-.05v0l0,0,0,0,0,0,0,0,0,.05,0,.06,0,.05,0,.06,0,.06,0,.06,0,.06,0,.08,0,.07,0,.08,0,0v.35l0,.07v.16l0,.05,0,0,0,.05,0,0,0,0,0,0,0,0-.05,0-.06,0-.08,0h-.08l-.07,0,0,0,0,0,0,0h0l-.05.11-.05.12-.06.15,0,.16-.06.18-.05.18,0,.19-.05.21,0,.21,0,.23-.05.23,0,.24,0,.25,0,.25,0,.26,0,.25,0,.27,0,.26,0,.27,0,.27,0,.27,0,.27,0,.26,0,.26,0,.27,0,.25,0,.25,0,.24,0,.17,0,.17,0,.15,0,.14v0a2.92,2.92,0,0,1,1.44-.82c-.26.49-.21.64,0,.62l.44-1.68-.5-2.94.64,2.4,1.44-5.5-1.34,6v0h0l-.4,1.55a5.87,5.87,0,0,0,.66-.33c-.18.68-.13,1,.14.9l1.6-2.22,0-.09a55.51,55.51,0,0,0,1.64-6h0c-.11,1.79-1.29,5.15-1.23,5.48A76.22,76.22,0,0,1,189,88.28c-1.86,2.36-3.67,4.88-5.4,7.31,1.9-1.14,3.76-2.35,5.55-3.65-1.42,1.51-5.34,3.79-5.88,4.12l-1.34,1.87a4.13,4.13,0,0,1,2.77-.88q2.11-1.71,4.24-3.4a42.92,42.92,0,0,1-4.05,3.56,6.52,6.52,0,0,1-.3.92l2.55-.83-2.62,1a3.71,3.71,0,0,1-.59.92c-.38.32-.55.53-.53.61l0,0,.17-.09.16-.1.17-.09.17-.09.16-.08.17-.08.17-.08.16-.08.16-.07L185,99l.15-.06.18-.08.17-.08.18-.08.17-.08.18-.08.16-.08.16-.08.16-.08.16-.08.16-.09L187,98l.14-.09.15-.09.15-.09.14-.09.14-.09.13-.09.13-.09.13-.1.13-.09.12-.1.12-.1.12-.1.1-.1.1-.1.1-.1.1-.1.09-.1h-.73l-.06,0-.05,0-.06,0-.05,0-.05-.06,0-.07v-.17l0-.07,0-.06,0-.06,0,0,.05,0,.06,0,.06,0,.07,0,.08,0,.07,0,0,0,0,0,.06,0,.05,0,.05,0,.06,0,.05,0,.05,0,0,0,.05,0,.06,0,0,0,.05,0,.05,0,.05,0,.05,0,.05,0,.05,0,.05,0,.06,0,.05,0,.05,0,0-.05,0,0h0l0,0,0,0,0,0,0,0,0,0,0-.06,0-.07v-.13l0,0,0-.05,0,0,0,0,0,0,0,0,0,0,0-.06.05-.06,0-.06,0-.07.05-.07,0-.07.05-.07,0-.07.05-.06,0-.08.05-.07,0-.07.05-.07,0-.07,0-.07,0-.07,0-.07,0-.07,0-.07,0-.07,0-.07,0-.07,0-.08,0-.07,0-.07,0-.08,0-.07,0,0h-.83l-.31-.11.18-.27v0l0,0v0l0,0,0,0v0l0,0v0l0,0v0l0,0v-.06l0,0V91l0,0h-.06l-.06,0h-.36l-.07,0-.08,0-.08,0-.07,0h-.15l-.1,0-.11-.07-.06-.1,0-.1v-.15l0-.06,0-.06,0-.06,0-.06,0-.07,0-.07,0-.07,0-.07,0-.08,0-.08,0-.08,0-.07,0-.09,0-.08,0-.08v0h-.12l0,0-.05,0,0,0,0,0,0,0,0,0,0,0h-.19L189,90l-.06,0-.05-.06,0-.07v-.16Zm2.27-27.41c0,.82.08,1,.32.55a1.28,1.28,0,0,1,.22-.35c0-.11.06-.21.09-.32l.25-5.33,0,4.54a63.17,63.17,0,0,1,2.24-6.65c-.77,2.41-1.47,4.85-2.18,7.28a1.2,1.2,0,0,0-.06.19h0l2.65-2-2.7,2.3h0c.14.91,0,2.07.48,1.15l.61-.77A3.72,3.72,0,0,1,193.2,64a3.4,3.4,0,0,0,1.07-.51s0,.08,0,.12l.48-.36-.48.39a15.82,15.82,0,0,1,.06,2.14h0l.06,0,.05-.05,0-.06,0-.07.05-.06,0-.07,0-.07,0-.07,0-.08,0-.08,0-.08,0-.08.05-.08.05-.08,0-.07h-.3l0,0-.05,0-.06-.05,0-.08V64.4l0-.08,0-.07,0,0,0,0,0,0,0,0,0,0,0,0,0,0,0,0,0,0h0l0,0,0,0,0,0,0,0,0,0,0,0,0,0,0,0,0,0,0,0,0,0,0,0,0,0,0,0,0,0,0,0,0,0,0,0,0,0,0,0,0,0,0,0,0,0V63.2l0,0,0,0,0,0,0,0,0,0,0,0V62.8l0,0,0,0v0l0,0,0,0,0,0,0,0,0,0,0,0,0,0,0,0,0,0,0,0,0,0,.06-.08.05-.08,0-.07,0-.07,0-.07,0-.06,0-.06,0-.06,0-.05,0-.05,0,0v-.19h-.68l0,0h-.34l0,0h-.48l0,0h0l0,0h-.18l-.07,0-.08-.06-.05-.09,0-.08v-.07l0-.05,0,0,0,0,0,0,0,0,0,0,0-.05,0-.06.05-.07.06-.07.06-.08.07-.09.07-.09.06-.08.06-.09.05-.08.05-.08,0-.08,0-.08,0-.08,0-.08,0-.07,0-.07,0-.07,0-.07,0-.07v-.61l0-.05,0-.06h0l0,0,0,0,0,0,0,0,0,0,0,0,0,0h-.16l-.06,0-.07,0-.06-.06,0-.07v-.26l0,0,0,0,0,0,0,0,0,0,0-.06,0-.06,0-.05,0-.06,0-.06,0-.06,0-.06,0-.06,0-.06,0-.06,0-.06,0-.06,0-.06,0-.06,0-.06,0-.05,0-.06v-.06l0-.05V57l0,0-.05,0-.06,0-.05,0-.05,0-.05,0-.05,0h-.28l-.07,0-.07,0-.05-.06,0-.07,0-.07v-.19l0-.06,0-.07,0-.07,0-.07,0-.08,0-.08,0,0,0,0,0,0,0,0,0,0,0,0,0,0,0,0,0,0,0,0,0,0,0,0,0,0,0,0,0,0v0l0,0,0,0,0,0,0,0,0,0v0h-.16l-.05,0-.05,0,0,0,0,0,0,0,0-.05,0,0V54.6l0-.06v-.06l0-.06,0-.07,0-.06,0-.06,0-.06,0-.06,0-.06,0-.06,0-.06V53.8l0-.06,0-.06,0-.06v-.07l0-.06,0-.06v-.64h0l-.05,0,0,0-.05,0,0,0,0,0,0,0,0,0,0,0,0,0,0,0,0,0,0,0,0,0,0,0,0,0,0,0,0,0,0,0,0,0,0,0,0,0,0,0,0,.06,0,0,0,.05,0,.07,0,.07,0,.05,0,.06,0,.05,0,0,0,0,0,0,0,0,0,0,0,0,0,0,0,0,0,0-.06,0h-.15l-.06,0-.05,0,0,0,0,0,0,0,0,0,0,0v0h0V55l-.11.1,0,0-.05,0,0,0-.05,0-.06,0h-.13l-.07,0-.06,0,0,0,0,0,0,0,0,0,0,0,0,0,0,0v-.13l0,0L192,55l-.1.24-.1.24-.09.26-.09.26-.08.26-.07.27-.08.28-.06.28-.06.29-.05.29-.05.29,0,.3,0,.31,0,.3,0,.31,0,.31,0,.32,0,.31,0,.32,0,.32,0,.26a3.61,3.61,0,0,1,.33,1.16Zm-66-12.81.14-.91A1.38,1.38,0,0,0,125.17,49.4Zm.15-1v.07S125.33,48.43,125.32,48.42Zm3.08,6.45Zm-4.23.62c-1.83,1.15-4.46.22-4.46.22a3.8,3.8,0,0,0,4.81.78c3-1.53,4.89-.85,4.89-.85l-1.07-.78a7.34,7.34,0,0,0-4.17.63Z"/><path d="M128.33,54.87h0Zm31.59-6.34v-.05S159.91,48.5,159.92,48.53Zm1,6.87a7.29,7.29,0,0,0-4.17-.62l-1.08.77s1.91-.68,4.9.85a3.79,3.79,0,0,0,4.81-.78S162.74,56.55,160.92,55.4Zm-47.31-9.55a6.53,6.53,0,0,1,1.94,1.82l-.62,1.76a3,3,0,0,1-.57,0c-.62-.07.08.24,1.08.35v0l.06,0a5.13,5.13,0,0,0,1.59-.06c1.6-.35,1.68-2.51.48-3.93a17.59,17.59,0,0,1-1.9-2.59l2.66-3.14c.05,0,.08,0,.09,0s2.07-1.05,3.13-1.55a3.24,3.24,0,0,1,.52-.24c.08,0,.11,0,.08,0l-.08,0-.52.24s-.07,0,0,0l-.59.28a3.57,3.57,0,0,1-.38,2c-.55.85-1.43,4.69-.5,5.67,0,0,1.08,2.08,5.14,2l-.07-.1-.39-.12.56.12V47.6s-5.14-.38-2.33-5c0,0,2.66-4.87-.15-5.17h-.05c-.45-.17-3.54-1.8-4.06-.94,0,0-2.65,2.91-4.83,3.36s-3.67,3.63-.23,6ZM123.29,40l-.19.58c.15-.5.28-1,.4-1.56a4.11,4.11,0,0,1-.21,1Zm.16-1.44c-.12-.28-.42-.41-.87-.44C123,38.1,123.32,38.19,123.45,38.59Zm-7.63,9.74a1,1,0,0,1-.23.89Z"/><path d="M186.33,61.64a9.77,9.77,0,0,0-5.21-.18l-.42.17a11,11,0,0,0,4.4-5.56,7.91,7.91,0,0,0-4.87.62,7.28,7.28,0,0,0,2.52-8.76c-1.36,1.25-6.45,6.37-6.45,6.37l0,0c7.4-8.32,2.18-13.23,2.18-13.23s-.67,5-7.67,12.88l0,.1a3.53,3.53,0,0,0-.43-.82c.7,1.93-6.35,7.67-6.35,7.67v0a3.64,3.64,0,0,0-.75-.92c.28,1.8-1.73,3.38-3.16,4.09-3.13,2,.88,5.49.88,5.49,1.2,3.42-2.43,3.46-3.84,3.26-1-.16-1.31-1.2-2.13-2l-.08-.07c-1.39,3.48-7,6-11.38,7.44-.22.34,0,.45.3.34a5.74,5.74,0,0,1,1.9-.37,11.36,11.36,0,0,1,3.91.89,10.09,10.09,0,0,0,3.43.93c1.46,0,2.13-1.3,2.58-3.09a.7.7,0,0,1,.78.3c-.3,1.34-1.68,5.26-5.12,5.26-1.6,0-2.53-.45-4.85-1.34A12.53,12.53,0,0,0,142,80c-1.38,0-2.35.56-4,1.86a.72.72,0,0,1-.63-.71c0-.34.07-.67.3-.75,6.82-2.91,13.87-6.07,13.87-11.3a3.16,3.16,0,0,0-3.43-3.47c-1,0-2.54.52-2.54,2.09a1.44,1.44,0,0,0,.48,1,1.44,1.44,0,0,1,.41,1,1.69,1.69,0,0,1-1.83,1.72,1.86,1.86,0,0,1-2-2.09c0-3.1,3.69-4.33,6.3-4.33a12.34,12.34,0,0,1,2.41.22,6,6,0,0,1-1.15-3l0,.06A13.66,13.66,0,0,1,151,59c0-.07,0-.12,0-.19,0,.72,0,1.07.2.54a6.74,6.74,0,0,1,2.23-2.86l.22-.18-.32.28c3.94-.93,4.31,2.43,4.31,2.43,1.33-3.79-2.16-3.46-2.16-3.46,4.36-3.71,5-2,5.14-2,1.13-.8,1.91,1.13,1.91,1.13s3-3.21-.85-4.64a.85.85,0,0,0-.49,0,2.14,2.14,0,0,0-.35.09l.23-.19c-.17-.85-.58-1-1.08-.72a1,1,0,0,0-.1-.73l.09.73-.16.09a3.06,3.06,0,0,0-.17-.91l.07,0,.13.88a1.29,1.29,0,0,0-.13-.88.11.11,0,0,0,0-.16.24.24,0,0,0-.07-.13l0,0a20.29,20.29,0,0,0-2.86-.31,5.59,5.59,0,0,0-.81-.07,2.7,2.7,0,0,0-.45.07,20,20,0,0,0-2.84.31h0l0-.18h0l0,0-.06-.49h0l-.07,0-.18-.08-4.52-2.94a.23.23,0,0,1,0-.07c.45-.1.08-.47.08-.47a34.33,34.33,0,0,0-5.1-.5h-.27a32.13,32.13,0,0,0-5.19.5s-.37.37.09.48h0s-.67,1.45-4.84,3.15h0l-.06.44-.08,0,0,0h.11l0,.23-.08,0a26.89,26.89,0,0,0-3.1-.29l-.25,0-.55,0a20.74,20.74,0,0,0-2.92.32h0s-.14.17,0,.25l-.08,0a3.12,3.12,0,0,0-.2,1c-.59-.4-1.07-.34-1.26.62l.22.18-.27-.07a.89.89,0,0,0-.52,0c-3.81,1.43-.85,4.64-.85,4.64s.78-1.93,1.91-1.13c.1,0,.78-1.75,5.14,2,0,0-3.48-.32-2.15,3.46,0,0,.37-3.36,4.31-2.43l0,0a6.6,6.6,0,0,1,2.16,2.8c.17.58.23.11.18-.73,0,.13,0,.25.07.38a13.85,13.85,0,0,1,.91,3.37l-.08-.09s-.33,4.14-3.59,4.11a1.78,1.78,0,0,0,2.86.87,2,2,0,0,1-1.15.74l.1,0c-.08,0-.13,0-.1,0-2.06,1.63-3.48.4-3.48.4a2.09,2.09,0,0,0,.67,2.58,19.52,19.52,0,0,0-1.89,1.81c-.85.23-5.37.58-4-3.24,0,0,4-3.53.88-5.49-1.43-.7-3.44-2.28-3.16-4.09a3.61,3.61,0,0,0-.78,1l0-.12s-7-5.74-6.35-7.67a3.52,3.52,0,0,0-.43.82l0-.1c-7-7.89-7.67-12.88-7.67-12.88s-5.22,4.92,2.18,13.23l0,0s-5.09-5.11-6.45-6.37a7.28,7.28,0,0,0,2.62,8.84,7.89,7.89,0,0,0-5-.66,11,11,0,0,0,4.32,5.5l-.33-.14a9.76,9.76,0,0,0-5.22.18s1.13,3.05,6.76,4.94l-.44-.05c-4.64-.58-5.74.91-6.19.91,0,0,1.32,2.54,6.36,3.4l-.34,0s-3.33.31-4.64,2c0,0,.87,1.72,5.61,1.88a1.68,1.68,0,0,1-.1.24,5.1,5.1,0,0,0-2.33,1.21.91.91,0,0,0-.88-.51.42.42,0,0,0-.47.54l-.35-.38s0-.5-.38-.53c-.57-.86-.57-.35-.37.18a.25.25,0,0,0,0,.06c-.11.33.35.55.35.55l.22.47a.42.42,0,0,0-.68.23,1,1,0,0,0,.38,1.23c-.38.5-.54.55-.45.71a.69.69,0,0,0,.53.22c.12,0,.73,0,.82.16s.36,0,.53.18a1.39,1.39,0,0,0,.5.31L103,80A2,2,0,0,0,102,79.3c-.57-.06-1.37.1-1.82-.2a1.65,1.65,0,0,1-2,.25c-.32,0-.44.06,0,.57s.88.64,2.12.39a3.88,3.88,0,0,1,.92-.24,2,2,0,0,1-1.06.62,8.41,8.41,0,0,0-1.71.67c-.16.05-.32.22.34.39a3.28,3.28,0,0,0,2.67-.77c.46-.62.46-.46.46-.46a5.08,5.08,0,0,1-1.89,2c.54.46.7.45.7.45l-.14.33s-.08.08.12.08.11-.16.4,0a14.51,14.51,0,0,0,3.56,1.13c.36-.06.56-.27-.11-.56l.21-.94.33.14s0,.45,0,.61.83-.48.83-.48,0,.68,0,.8-.23.29.57.91a62.85,62.85,0,0,1,8.77,13,4.1,4.1,0,0,0,.38.94,2,2,0,0,0-.72,1.73,1,1,0,0,0,.79.91c-.19,1,.39,1.51,1.27,1.55a1.19,1.19,0,0,0,1.19,1.1,6.86,6.86,0,0,0,1.14.71c-.47.56-.14,1.28.72,1.51a1,1,0,0,0,.81.72.85.85,0,0,0,1.09.32.86.86,0,0,0,.23-1.09,1,1,0,0,0,0-1,1,1,0,0,0-.35-1.32,2.47,2.47,0,0,0-.19-1l1.82-1.14a11,11,0,0,1,5.61-2.36,15.8,15.8,0,0,1,2.09,0c.86.1,2,.35,2.75-.18a.62.62,0,0,0,.3-.6c-.09-.53-.67-1-.86-1.49,0-.15-.14-.36-.22-.56a2.51,2.51,0,0,0,1.5-.14,2,2,0,0,0,1.23-1.81c-.72.35-2.46.81-2.64-.95-.18-1.56,1.18-2.88,3.32-2.3,1.47.37,3.6,3.48,1.65,4.82-.89.62-4.39,3.4-4.56,5.63a7.54,7.54,0,0,0-.18,1c-.72.47-7.13,4.4-7.3-2,0,0-4.39,3.16-.1,7.07,0,0-1.8,1.3,0,5.24a3.5,3.5,0,0,1,.1,2.13s1,.08,1.67-1.33c-.26,1.83,0,4.11,1.62,5.07,0,0,3.79,3.26,1.31,4.44.4.46,3.09.24,3.66-1.73l0,0c.4.78,1.83,1.26,1.83,1.26,3.16.3,3.64,1.56,3.64,1.56a7.18,7.18,0,0,0-4.69-6H135a1.76,1.76,0,0,0,.41-1,3.1,3.1,0,0,0,.42.17,4.29,4.29,0,0,0,3.7-.27,21.83,21.83,0,0,0,3.07,9.29,23.35,23.35,0,0,0,3-9.19,4.26,4.26,0,0,0,3.68.26l.1,0a1.63,1.63,0,0,0,.35.84h-.08a6.91,6.91,0,0,0-4.39,5.9s.47-1.26,3.63-1.56a4.14,4.14,0,0,0,1.77-1.16c.72,1.73,3.19,1.9,3.56,1.46-2-1.63.86-3.33,1.31-4.41,2-1.28,1.74-5.05,1.06-7.32a3.4,3.4,0,0,0,.11-.45c.25,4.34,2.26,4.16,2.26,4.16a3.62,3.62,0,0,1,.13-2.13c1.78-3.94,0-5.24,0-5.24,4.29-3.92-.13-7.07-.13-7.07-.18,6.82-7.22,2.06-7.22,2.06h0a6.52,6.52,0,0,0-.2-1.07c-.22-2.22-3.66-5-4.55-5.58-1.93-1.34.18-4.46,1.67-4.82,2.11-.58,3.5.74,3.3,2.3-.23,1.76-1.92,1.3-2.69.95a2.14,2.14,0,0,0,1.27,1.81,2.57,2.57,0,0,0,2,0c0,.17-.06.36-.06.41-.13,1.51-1,1.65-.67,2.28.39.46,3,.37,3.7.51,1.23.16,2.27.63,3.46.86a23.38,23.38,0,0,1,3.92.77c.76.33,1.63,1,2.37,1.32,1.14.19,1,.65,1.67.65s.91-.56,1.74-.79c.58-.14,1.23.09,1.81-.09.42-.09.6-.54,1-.77s1.12-.28,1.55-.67a1,1,0,0,0,.25-.88v.07a5.43,5.43,0,0,0,1.93-2.58.52.52,0,0,0,.42-.49v-.09a1,1,0,0,0,.37-.75,1.16,1.16,0,0,0-.37-.85v-.1a.7.7,0,0,0-.19-.44,5.3,5.3,0,0,0-3.88-4.15v-.1h0c0-.1,0-.14-.12-.14a2.47,2.47,0,0,1-.65-1,5.28,5.28,0,0,1,1.14.81V87.72a5.58,5.58,0,0,1-1.14.81,3,3,0,0,1,.81-1.14h-2.71a3,3,0,0,1,.81,1.14,5.72,5.72,0,0,1-1.14-.81v2.67a5.51,5.51,0,0,1,1.14-.81,3,3,0,0,1-.81,1.13l.09.05a5.33,5.33,0,0,0-4,4.2.57.57,0,0,0-.23.44v.1a1.15,1.15,0,0,0-.37.85,1,1,0,0,0,.37.75v.09a.47.47,0,0,0,.42.49,7.05,7.05,0,0,0,.33.74s0,0,0-.05a1.85,1.85,0,0,1-1.3,1.23c-1.65.24-3.49-.46-5.16-1.09a4.52,4.52,0,0,1-2.23-1.33,1.47,1.47,0,0,1-.27-1.32,3.06,3.06,0,0,0,.9.71,3,3,0,0,1,.14-.67,2.06,2.06,0,0,0,1.91.91,2.7,2.7,0,0,1-.49-2.46,2.07,2.07,0,0,0,3.69-.67,1.18,1.18,0,0,1-1.75-.56c-.27-.81.66-2.78-.18-4.32a3.94,3.94,0,0,0-3.22-2.11,1.6,1.6,0,0,0,.23-.72c-1.65.6-3.07.15-3.74-1.18a3.51,3.51,0,0,0,1.28.18,3.83,3.83,0,0,1-1.1-2.85c2.67,1.38,7.24,4.06,8,4.91a.85.85,0,0,0,.57.22c.88-.93.41-3.08.26-3.66,1.67,4.06,3.92,3.71,3.92,3.71.63-2.41,0-3.13,0-3.13l0,0c2.28,3.29,5,3,5,3,.38-2.88-.63-3.59-.63-3.59h0c3.09,2.55,5.5,2,5.5,2a5.55,5.55,0,0,0-1.63-4l-.08-.08c3.22,1.42,4.77.38,4.77.38,0-1.9-2.88-3.51-2.88-3.51l-.07,0c3.94.82,5.89-.86,5.89-.86a5.06,5.06,0,0,0-4.44-2.64l-.69-.13c6.19.22,7.26-1.88,7.26-1.88-1.3-1.66-4.64-2-4.64-2l-.35,0c5-.87,6.36-3.41,6.36-3.41-.45,0-1.56-1.48-6.19-.9l-.44.05c5.62-1.88,6.76-4.94,6.76-4.94ZM104.41,78.87a1.47,1.47,0,0,0-.07-.53l.4.09a2.58,2.58,0,0,0,.16.35l-.49.09Zm2.36-4.11.89,0-.69.13h-.18a.93.93,0,0,0,0-.11Zm1.42,9.12c-.27-1-.52-.81-.63-.86l-.73-.33a7,7,0,0,0,.63-.42c.19,0,.4,0,.62-.07.07.05.14,0,.22,0a8.9,8.9,0,0,0,1.9-.62l-.08.08a5.58,5.58,0,0,0-1.57,3.07,6.73,6.73,0,0,1-.36-.8ZM127.46,86a1.57,1.57,0,0,0,.24.72,3.87,3.87,0,0,0-3.21,2.11c-.91,1.54,0,3.51-.21,4.32a1.18,1.18,0,0,1-1.74.56,2.07,2.07,0,0,0,3.69.67,2.8,2.8,0,0,1-.47,2.46,2,2,0,0,0,1.88-.91,2.67,2.67,0,0,1,.14.67,2.87,2.87,0,0,0,.91-.71,2.52,2.52,0,0,1,0,1.2,11.62,11.62,0,0,1-1.32.75,16,16,0,0,1-3.69,1.28,2.49,2.49,0,0,1-2.6-1.47c-.32-1.09-1.23-1.44-2-.77a.88.88,0,0,0-1,.1l-.58.46c-.14-.15-.34-.31-.61-.55a67.72,67.72,0,0,1-7.85-11.21,7.69,7.69,0,0,0,4.91-2h0s-1,.7-.62,3.59c0,0,2.76.25,5-3l0,0s-.65.73,0,3.13c0,0,2.25.36,3.92-3.7-.15.59-.62,2.73.27,3.66,0,0,.63-.14.8-.45s4.86-3.12,7.67-4.57A3.69,3.69,0,0,1,129.92,85a3.66,3.66,0,0,0,1.27-.18c-.64,1.32-2.09,1.78-3.74,1.18Zm5.46,10.34a1,1,0,0,1,.09.19Zm21-47,2.83-.13s-.27,2.71-2.33,1.68A1.15,1.15,0,0,1,153.95,49.31Zm-18.5,2.58h0a5.27,5.27,0,0,0,1.67-1.41H137a13.62,13.62,0,0,1-3.33,0l-.3-.07a6.47,6.47,0,0,0,4.66-2.11c-.6.3-2.41.45-5.67.25a7.26,7.26,0,0,1-1.81-.37c1.06.11,1.82.26,1.82.26s.15-.06.15-.11c6.67-1.08,8.91-4.43,9-4.53a13.24,13.24,0,0,0-2.72.22,35.45,35.45,0,0,1,3.7-.34l1.24.07c-.09,0-.15,0-.16,0l.05.08-.05,0a9.15,9.15,0,0,0,3.56,2.77,18.23,18.23,0,0,0,5.49,1.72s0,.08.15.09.43-.09,1.1-.17a7.11,7.11,0,0,1-1.27.22c-3.26.2-5.07.05-5.67-.25a6.46,6.46,0,0,0,4.66,2.11l-.29.07a13.52,13.52,0,0,1-3.36,0h0a5.31,5.31,0,0,0,1.68,1.4h0c0,.1-3.08,2.25-5.11,1.55a2,2,0,0,0,1.59,1.58l-.06,0c-1.4.6-2.18,3.61-2.18,3.61l.43-.19,0,0c-1.2,1-1.42,2.85-1.43,4.07l0-.05s-.08.28-.17.72c0,.11-.05.24-.08.37-.11-.59-.23-1-.23-1l-.07.08c0-1.22-.22-3.07-1.43-4.09l-.07-.07.52.22s-.78-3-2.18-3.61L139,55a2,2,0,0,0,1.57-1.58c-2,.7-5.11-1.46-5.11-1.56Zm-7.16,60.3c0-.3.07-.61.09-1a5.33,5.33,0,0,0,.15.54A3.13,3.13,0,0,0,128.29,112.18Zm3.9-3.22a5.67,5.67,0,0,0,1.3.76,8.79,8.79,0,0,0-.39,1.41c-.45-.08-1.27-.46-.91-2.18Zm-2.2,5a2.8,2.8,0,0,0,2.95.1s0,0,0,0a6.05,6.05,0,0,0,1.7,3.08C131.47,117.91,130.65,115.91,130,114Zm4.48-6.27-.1.18c-.3-.26-.42-.76-.1-1.68a2.55,2.55,0,0,1,.16-.42,2.89,2.89,0,0,0,1.05.22,8.4,8.4,0,0,0-1,1.7Zm4.86,7.08c-.83-.19-1.6-.79-1.68-2.36,0,0-.47-2.64,1.91-6.92l.55-.08a48.24,48.24,0,0,0-.78,9.36ZM152.94,109c.36,1.74-.51,2.11-1,2.19a9,9,0,0,0-.4-1.41A5.53,5.53,0,0,0,152.94,109Zm-.78,5.26s0-.09,0-.14a2.84,2.84,0,0,0,2.93-.05c-.4,1.9-1.35,3.57-4.33,3a6.31,6.31,0,0,0,1.4-2.79Zm-1.42-8.37a1.68,1.68,0,0,1,.12.38c.34,1,.19,1.48-.15,1.73l-.08-.13a8.26,8.26,0,0,0-1.13-1.8,3.09,3.09,0,0,0,1.23-.18Zm-3.29,6.69c-.08,1.52-.8,2.14-1.6,2.34a40.66,40.66,0,0,0-.75-9.47l.35,0C147.93,109.84,147.45,112.55,147.45,112.55Z"/><path d="M135.28,37v0l0,.05a16.26,16.26,0,0,0,.56,1.8s0,0,0,.08l0,0,.15.38h0l0,0c.19.48.43,1,.7,1.6h0l0,0q.28.58.58,1.15h0l-.26,0s-.28.35.12.45a30.54,30.54,0,0,1,4.15-.5h2.38a32.8,32.8,0,0,1,4.25.5c.43-.1.12-.45.12-.45l-.25,0h0a25.79,25.79,0,0,0,1.44-3.15v0s0,0,0,0a10.71,10.71,0,0,0,.81-3.25,3.23,3.23,0,0,0-.11-.86v0h0a2.92,2.92,0,0,0-.81-1.33l0,0,0,0a5.61,5.61,0,0,0-2.49-1.23h0a6.25,6.25,0,0,0-.7-.13l0-.33h0a5.5,5.5,0,0,0-1-.2,1.63,1.63,0,0,0,0,.17l-.13,1h-1.05l.07-.57c-.12-.28-1-.34-1.29-.37h-.11c-.25,0-1.14.1-1.23.37l.07.57h-1l-.17-1.15a5.52,5.52,0,0,0-1,.2v0h0l0,.3A6.17,6.17,0,0,0,136,33.49l-.05-.05,0,.07a3,3,0,0,0-.78,1.33l-.05,0,0,.07a3.22,3.22,0,0,0-.1.81,7.17,7.17,0,0,0,.21,1.33Z"/><path d="M142.14,42.69a.55.55,0,0,0,.55.55.55.55,0,0,0,0-1.11A.56.56,0,0,0,142.14,42.69Zm1.6,0a.53.53,0,0,0,.55.53.51.51,0,0,0,.53-.53.54.54,0,0,0-.53-.55A.56.56,0,0,0,143.74,42.74Zm1.53.1a.55.55,0,0,0,1.1,0,.55.55,0,1,0-1.1,0Zm1.35.17a.55.55,0,1,0,.55-.55A.56.56,0,0,0,146.62,43Zm-6.09-.28a.54.54,0,0,0,.55.53.51.51,0,0,0,.53-.53.54.54,0,0,0-.53-.55A.56.56,0,0,0,140.54,42.74Zm-1.58.07a.55.55,0,0,0,1.1,0,.55.55,0,1,0-1.1,0Zm-1.5.23a.55.55,0,1,0,.55-.53A.54.54,0,0,0,137.45,43ZM124,42.89a4.3,4.3,0,0,0,.13.85v0l0,0a9.55,9.55,0,0,0,.37,1.17.16.16,0,0,1,0,.05l0,0c0,.08.07.16.09.24h0l0,0c.13.32.29.66.47,1h0l0,0c.12.24.25.49.39.76h0l-.19,0s-.18.23.08.29a20.26,20.26,0,0,1,2.82-.33h1.43a20.92,20.92,0,0,1,2.34.23.36.36,0,1,0,.38.35.36.36,0,0,0-.24-.33l.41.07c.27-.07.07-.29.07-.29l-.19,0h0a17.59,17.59,0,0,0,1-2.05h0a6.8,6.8,0,0,0,.53-2.11,2,2,0,0,0-.08-.56v0h0a1.86,1.86,0,0,0-.54-.86.06.06,0,0,0,0,0l0,0a3,3,0,0,0-.73-.47h0a4.52,4.52,0,0,0-.75-.28h0l-.14,0,0,0h0a3.69,3.69,0,0,0-.46-.08l0-.21h0v0a3.76,3.76,0,0,0-.62-.12s0,.17-.06.46l0,.29h-.7l0-.36c-.08-.2-.79-.23-.89-.24s-.78,0-.85.24l0,.36h-.68l-.12-.74h0a3.59,3.59,0,0,0-.63.13,0,0,0,0,1,0,0h0l0,.19a4.19,4.19,0,0,0-.48.09h0a4.3,4.3,0,0,0-.9.33h0a2.9,2.9,0,0,0-.71.49l0,0,0,.06a1.82,1.82,0,0,0-.52.86l0,0,0,.06a2.32,2.32,0,0,0-.07.52Z"/><path d="M128.72,47.44a.36.36,0,0,0,.37.36.36.36,0,0,0,0-.71A.36.36,0,0,0,128.72,47.44Zm1.05,0a.35.35,0,0,0,.37.34.33.33,0,0,0,.35-.34.35.35,0,0,0-.35-.36A.36.36,0,0,0,129.77,47.47Zm1,.07a.36.36,0,0,0,.36.36.36.36,0,1,0,0-.72A.36.36,0,0,0,130.79,47.54Zm-3.13-.07a.35.35,0,0,0,.36.34.34.34,0,0,0,.35-.34.35.35,0,0,0-.35-.36A.36.36,0,0,0,127.66,47.47Zm-1,0a.34.34,0,0,0,.36.34.35.35,0,0,0,.37-.34.36.36,0,0,0-.37-.36A.36.36,0,0,0,126.62,47.52Zm-1,.14a.37.37,0,1,0,.36-.34A.35.35,0,0,0,125.62,47.67Zm25.76-4v0l0,0a9,9,0,0,0,.37,1.17v0l0,0,.1.25h0l0,0c.13.32.29.66.46,1h0l0,0,.39.76h0l-.18,0s-.18.23.08.29a20.28,20.28,0,0,1,2.82-.33h1.43a20.7,20.7,0,0,1,2.33.24.36.36,0,0,0-.35.35.36.36,0,0,0,.37.36.36.36,0,0,0,.36-.36.36.36,0,0,0-.24-.33l.41.07c.28-.07.08-.29.08-.29l-.19,0h0a18.1,18.1,0,0,0,1-2h0a7.11,7.11,0,0,0,.53-2.11,2,2,0,0,0-.08-.56v0h0a2,2,0,0,0-.53-.86v0l0,0a2.77,2.77,0,0,0-.72-.48h0a4.52,4.52,0,0,0-.76-.27h0l-.14,0,0,0h0a3.53,3.53,0,0,0-.46-.08l0-.21h0v0a4.18,4.18,0,0,0-.63-.13l-.05.43,0,.32h-.68l0-.37c-.08-.19-.8-.23-.9-.24s-.77.05-.84.24l0,.37h-.7l-.12-.74h0a3.85,3.85,0,0,0-.64.13.06.06,0,0,1,0,0h0l0,.2a3.82,3.82,0,0,0-.48.09h0a4.59,4.59,0,0,0-.91.33h0a3.36,3.36,0,0,0-.71.49l0,0,0,.06a1.86,1.86,0,0,0-.52.86l0,0,0,.06a2,2,0,0,0-.07.52,4.14,4.14,0,0,0,.13.85Z"/><path d="M155.91,47.34a.36.36,0,0,0,.37.36.36.36,0,0,0,0-.72.37.37,0,0,0-.37.36Zm1.06,0a.35.35,0,0,0,.37.34.33.33,0,0,0,.34-.34.35.35,0,0,0-.34-.36A.37.37,0,0,0,157,47.37Zm1,.07a.36.36,0,1,0,.37-.36A.36.36,0,0,0,158,47.44Zm-3.13-.07a.36.36,0,0,0,.37.34.34.34,0,0,0,.35-.34.36.36,0,0,0-.35-.36A.37.37,0,0,0,154.85,47.37Zm-1,0a.37.37,0,0,0,.73,0,.36.36,0,0,0-.73,0Zm-1,.14a.36.36,0,0,0,.73,0,.37.37,0,0,0-.73,0Zm10.71-2.12c-.33,1.13-2.49,1.74-3.63,2l-.12.61h0c2-.14,4.46-.92,5.46-2,1.74-1.86-1-4.22,0-6.06a9.79,9.79,0,0,0,3,1.14,4.9,4.9,0,0,1,.3,1.14c.42,2.07-1.62,2.42-1.09,4.62.23,1,1,1.35,1.23,2.54A2,2,0,0,1,168,51a2,2,0,0,0,2-2.69c-.23-.53-.81-1-.81-1.67.86,1.14,1.63,1.09,2.95.67.61-.19.65.65.28,1.32a2.24,2.24,0,0,0,1.14-1.81,1.11,1.11,0,0,0-1.42-1.18c-.39,0-1.18.58-1.23-.19-.16-1.32,1.93-1.28,1.51-3.42-.23-1.07-1.41-1.65-3.27-1.88a8.9,8.9,0,0,1-.91-1c-1-1.69-2.07-2.14-2.7-1.79s-1.14.7-1.74,1a4.37,4.37,0,0,0-1.32.77c-.82,1-.05,2.55.37,3.51a4.29,4.29,0,0,1,.65,2.79Zm-8.73,4.78c1.15.3,1.13-1,1.13-1l-.7,0c.15.77-1.41.7-.43,1Zm-31.66,72.67c-.36.58-.23,1.22.58,1.72a3.37,3.37,0,0,0,.64.34l1.24-2a3.51,3.51,0,0,0-.46-.32,1.34,1.34,0,0,0-2,.26Zm77.32-21.43c-1.41-.87-2.78-.83-3.39.19v0c-.62,1,0,2.21,1.44,3.07s2.76.83,3.38-.2S201.83,102.3,200.46,101.48Zm-15.83-69.8.5-5.75-1.74-1.13-5,7.74,1.76,1.13,2.76-4.24-.5,5.71,1.76,1.14,5-7.74L187.4,27.4Zm-62.89,82.55-2.07,2.47-1.86-1.55,2.08-2.48-1.7-1.43-5.93,7.06,1.7,1.44,2.41-2.86,1.86,1.56-2.4,2.86,1.71,1.43,5.94-7.06Z"/></svg>