<svg xmlns="http://www.w3.org/2000/svg" viewBox="0 0 110 40"><path d="M88.466 2.964a11.746 11.746 0 0 0-1.433-.674 11.52 11.52 0 0 0-1.879-.543c-.709-.147-1.708-.222-2.599-.222-.792.06-1.715.197-2.437.436-.963.317-1.795.776-2.498 1.376a6.396 6.396 0 0 0-1.664 2.242c-.408.895-.612 1.92-.612 3.075 0 .791.108 1.506.322 2.139.215.635.515 1.213.901 1.733.384.522.832 1.014 1.342 1.479.51.464 1.059.934 1.648 1.409.497.408.961.804 1.393 1.188.43.386.809.776 1.138 1.173.327.396.587.798.781 1.205.192.408.288.84.288 1.292 0 .544-.113 1.02-.34 1.427a3.604 3.604 0 0 1-.882 1.052 3.748 3.748 0 0 1-1.239.664c-.466.147-.948.22-1.445.22-.238 0-.469-.013-.691-.036-1.089 0-1.838-.352-2.611-.839-.771-.487-1.429-1.308-1.975-2.464h-.272a13.737 13.737 0 0 1-.302 1.961 6.74 6.74 0 0 1-.355 1.265l-.078.229c.153.091.314.183.473.274a11.401 11.401 0 0 0 3.312 1.216c.708.147 1.846.229 2.736.229 1.087 0 2.129-.148 3.125-.443a7.555 7.555 0 0 0 2.632-1.359 6.574 6.574 0 0 0 1.801-2.276c.443-.906.662-1.961.662-3.161 0-.745-.107-1.42-.322-2.021a7.308 7.308 0 0 0-.849-1.664 8.598 8.598 0 0 0-1.24-1.427 33.296 33.296 0 0 0-1.495-1.308 63.691 63.691 0 0 1-1.732-1.478c-.499-.441-.913-.86-1.242-1.257a4.884 4.884 0 0 1-.748-1.189 3.101 3.101 0 0 1-.033-2.377c.147-.375.368-.702.662-.986a3.456 3.456 0 0 1 1.104-.696c.442-.181.946-.272 1.512-.272 1.091 0 1.855.183 2.628.67.773.489 1.432 1.31 1.975 2.465h.272l.005-.007c.202-1.386.482-2.478.903-3.288-.253-.226-.218-.194-.642-.432m-15.103 0a11.588 11.588 0 0 0-1.432-.674 11.55 11.55 0 0 0-1.879-.543c-.709-.147-1.707-.222-2.597-.222-.792.06-1.717.197-2.438.436-.963.317-1.796.776-2.497 1.376a6.35 6.35 0 0 0-1.665 2.242c-.409.895-.612 1.92-.612 3.075 0 .791.107 1.506.322 2.139.216.635.515 1.213.901 1.733.384.522.832 1.014 1.342 1.479.509.464 1.058.934 1.647 1.409.497.408.963.804 1.394 1.188.429.386.81.776 1.138 1.173.328.396.588.798.782 1.205.192.408.289.84.289 1.292 0 .544-.114 1.02-.34 1.427a3.595 3.595 0 0 1-.884 1.052 3.739 3.739 0 0 1-1.239.664c-.466.147-.946.22-1.446.22-.237 0-.468-.013-.691-.036-1.089 0-1.836-.352-2.609-.839-.773-.487-1.43-1.308-1.976-2.464h-.269a13.866 13.866 0 0 1-.323 2.054 6.61 6.61 0 0 1-.316 1.117l-.097.286c.151.092.311.182.469.273a11.42 11.42 0 0 0 3.313 1.216c.708.147 1.846.229 2.735.229 1.087 0 2.129-.148 3.127-.443a7.56 7.56 0 0 0 2.633-1.359 6.571 6.571 0 0 0 1.8-2.276c.443-.906.664-1.961.664-3.161 0-.745-.108-1.42-.323-2.021a7.192 7.192 0 0 0-.85-1.664 8.638 8.638 0 0 0-1.239-1.427 33.86 33.86 0 0 0-1.495-1.308 65.436 65.436 0 0 1-1.733-1.478 11.61 11.61 0 0 1-1.241-1.257 4.909 4.909 0 0 1-.747-1.189 3.102 3.102 0 0 1-.035-2.377c.148-.375.368-.702.663-.986a3.456 3.456 0 0 1 1.104-.696c.442-.181.945-.272 1.511-.272 1.09 0 1.857.183 2.63.67.771.489 1.43 1.31 1.975 2.465l.283.002c.204-1.387.847-2.428 1.362-3.014-.257-.229-.688-.478-1.111-.716m-48.191.66c-.283-.225-.655-.396-1.119-.633a13.48 13.48 0 0 0-1.573-.668 13.741 13.741 0 0 0-2.064-.537c-.778-.146-2.087-.22-3.064-.22-1.814 0-3.479.343-4.995 1.027a11.844 11.844 0 0 0-3.918 2.829c-1.097 1.202-1.944 2.605-2.542 4.21C5.299 11.237 5 12.96 5 14.801c0 1.191.159 2.406.478 3.653a9.304 9.304 0 0 0 1.676 3.418c.797 1.032 1.869 1.863 3.214 2.491 1.346.627 3.06.942 5.094.942.878 0 1.818-.027 2.664-.171 1.887-.325 2.757-.855 3.321-1.239l.292-.206c.35-1.004.611-2.003.862-3.385h-.342c-1.082 1.789-2.467 2.427-3.648 2.785a7.587 7.587 0 0 1-2.33.335c-4.09 0-6.543-3.019-6.543-8.085 0-6.714 3.859-11.667 8.714-11.819 1.197 0 2.227.251 3.075.733.847.483 1.868 1.296 2.468 2.442l.467-.004c-.001 0 .426-1.167.71-3.067M105 2.067c-2.073.063-4.338.128-6.976.128-2.662 0-5.91-.215-5.91-.215-.379.273-1.278 1.625-1.42 2.744 1.132-.067.641-.067 2.306-.067.532 0 1.677 0 2.143.033-.361 3.31-2.84 14.619-4.5 20.542.972.028 1.887.071 2.733.113.962.048 1.409.087 2.269.164.168-1.264.452-3.214 1.284-7.075 1.932-8.951 2.596-11.912 3.193-13.743.734-.033 1.236-.002 1.835-.002.878 0 2.117.061 2.499.082L105 2.067zm-64.34 23.21c2.215-7.724 4.722-23.054 4.722-23.054-1.13-.05-2.579-.189-2.579-.189-.058.874-.09 1.429-.267 2.448-.149.859-.309 1.712-.48 2.728-.17 1.017-.36 2.084-.57 3.201a953.17 953.17 0 0 1-.616 3.234c-.2 1.039-.395 2.011-.585 2.915a46.616 46.616 0 0 1-.526 2.262 118.842 118.842 0 0 1-2.808-4.457c-.59-.983-1.206-2.027-1.846-3.133a668.372 668.372 0 0 1-1.908-3.317 140.414 140.414 0 0 1-1.771-3.201A80.225 80.225 0 0 1 30 1.931c-1.51-.186-2.643 0-2.643 0a138.84 138.84 0 0 1-.66 4.29c-.261 1.541-.536 3.1-.826 4.674a434.413 434.413 0 0 1-.886 4.658 381.602 381.602 0 0 1-.856 4.24s-.578 2.978-1.307 5.572c0 0 1.516-.146 2.798-.117.079-.671.197-1.724.408-3.031.21-1.306.451-2.742.72-4.306.27-1.564.565-3.167.886-4.809.32-1.641.57-2.893.871-4.278 1.742 2.837 3.325 5.4 5.006 8.204 1.683 2.804 3.16 5.493 4.661 8.375 0 0 1.308-.058 2.627-.136M52.291 4.79s2.708-.112 7.07.088c0 0 .672-1.667 1.602-2.555-9.251.18-13.058-.023-13.058-.023-.089.716-.24 1.687-.452 2.915a247.224 247.224 0 0 1-.738 4.039c-.28 1.463-.581 2.994-.905 4.591a179.663 179.663 0 0 1-.988 4.591c-.335 1.464-.698 2.865-.999 4.059-.302 1.195-.52 2.046-.743 2.694.893-.044 1.836-.042 2.924-.056l3.051-.044 3.095.033c1.151 0 1.94.012 3.281.057 0 0 .888-1.09 1.333-3.121-2.929 1.064-8.181.843-8.181.843.179-1.497.473-2.877.752-4.364.279-1.485.575-2.965.888-4.439 0 0 4.232-.021 6.35.251.18-1.467.53-2.559.53-2.559-2.729.253-6.412.129-6.412.129a152.8 152.8 0 0 1 .72-3.335c.303-1.336.5-2.459.88-3.794M9.975 33.886c57.091-4.966 84.313-1.429 84.313-1.429l.736-3.741s-29.707-3.351-84.544 3.955l-.505 1.215zm-1.438 3.541c57.22-3.15 84.445 1.284 84.445 1.284l.782-3.729s-29.641-4.314-84.682 1.247l-.545 1.198z" fill="#51a245"/></svg>