<svg id="Layer_1" data-name="Layer 1" xmlns="http://www.w3.org/2000/svg" viewBox="0 0 300 150"><title>Artboard 1 copy 5</title><path d="M135.05,56.83c1.25,0,2.43,0,3.6,0,3.78,0,7.57-.06,11.33.19a8.76,8.76,0,0,1,8.41,6.91,32,32,0,0,1,1.07,6.64c.26,4.53.51,9.09-.5,13.57-1.29,5.75-4.82,8.79-10.68,9-4.23.14-8.48,0-12.71,0a3.94,3.94,0,0,1-.51-.08C135.05,81,135.05,69,135.05,56.83Zm7.66,30.62c1.65,0,3.25.09,4.83,0a3.44,3.44,0,0,0,2.94-2.1,7.69,7.69,0,0,0,.86-2.7c.19-4.45.31-8.9.31-13.35a13.37,13.37,0,0,0-.79-3.9,3.51,3.51,0,0,0-2.74-2.66c-1.78-.26-3.6-.23-5.4-.33C142.71,70.91,142.71,79.16,142.71,87.45Z"/><path d="M47.69,56.83h2.91c3.78,0,7.57-.16,11.33.12,5.56.41,8.38,2.94,9.47,8.42A49,49,0,0,1,71.6,84c-1.09,5.79-4.8,8.9-10.69,9.1-4.23.14-8.48,0-12.71,0a3.63,3.63,0,0,1-.51-.08Zm7.66,30.68c1.46,0,2.79,0,4.12,0a4,4,0,0,0,3.94-2.78,8.5,8.5,0,0,0,.65-2.53c.16-4,.31-8.07.28-12.11a18.27,18.27,0,0,0-.8-4.59A3.43,3.43,0,0,0,61,62.79a55.39,55.39,0,0,0-5.63-.43C55.35,70.9,55.35,79.14,55.35,87.52Z"/><path d="M100.9,93.17c-2.54,0-5,0-7.47,0-.25,0-.62-.48-.71-.79-.57-2.06-1.1-4.12-1.57-6.21-.16-.71-.41-1-1.19-1-2.86,0-5.72,0-8.59,0a.92.92,0,0,0-1.08.85c-.57,2.37-1.21,4.72-1.83,7.12H70.9c.81-2.94,1.59-5.8,2.39-8.66,2.44-8.78,4.9-17.55,7.31-26.33.26-1,.62-1.35,1.68-1.31,2.63.09,5.27,0,7.9,0,.63,0,1,.16,1.13.81q4.74,17.49,9.51,35C100.85,92.74,100.86,92.89,100.9,93.17ZM85.66,64.25l-.25,0L82.07,79.41h7.16Z"/><path d="M252.31,93.17c-2.6,0-5,0-7.48,0-.25,0-.62-.48-.7-.8-.64-2.35-1.22-4.72-1.85-7.18-3.3,0-6.58,0-9.85,0-.25,0-.61.48-.7.8-.6,2.13-1.11,4.28-1.71,6.41-.09.3-.49.73-.75.74-2.25.06-4.5,0-6.9,0,.09-.42.13-.73.22-1q4.75-17.13,9.5-34.27c.2-.72.46-1.07,1.3-1,2.71.06,5.42.05,8.13,0,.77,0,1,.27,1.24,1q4.65,17.16,9.34,34.32C252.16,92.38,252.21,92.68,252.31,93.17Zm-15.25-29h-.22l-3.37,15.2h7.16Z"/><path d="M112.84,93.17c-2.84,0-5.58,0-8.33,0-.82,0-.78-.57-.9-1.06q-3-12.26-6.08-24.53-1.21-4.88-2.41-9.77c-.06-.25-.1-.51-.19-1h3.34c1.22,0,2.44,0,3.66,0,.72,0,1,.22,1.13.92,1.42,6.75,2.88,13.5,4.33,20.25a36.88,36.88,0,0,0,1.26,4.8c.26-1,.53-2.06.78-3.09,1.75-7.26,3.52-14.52,5.24-21.8.19-.83.5-1.11,1.36-1.08,2.09.06,4.19,0,6.48,0Z"/><path d="M200.3,56.9h19.78v5.52H208v9h11.14V77H208V87.48h12.5V93.1H200.3C200.3,81,200.3,69,200.3,56.9Z"/><path d="M198.05,62.91h-9V93.07h-7.69V62.94H170.77v-6h27.28C198.05,58.89,198.05,60.85,198.05,62.91Z"/><path d="M132.2,93.11h-7.53V56.93h7.53Z"/><path d="M177.62,74.67H172c-.08-.7-.13-1.37-.23-2A1.69,1.69,0,0,0,170.06,71,1.85,1.85,0,0,0,168,72.4a2.62,2.62,0,0,0,.83,3.1A25.7,25.7,0,0,0,171.14,77c1.3.79,2.69,1.46,3.91,2.36A7.52,7.52,0,0,1,177.84,88a7.25,7.25,0,0,1-7,5.15,16.41,16.41,0,0,1-3.65-.24c-3.1-.56-4.77-2.45-5.1-5.61-.09-.86-.1-1.73-.15-2.75h5.79c.05.8.05,1.52.16,2.22a2.06,2.06,0,0,0,2.18,2,2.18,2.18,0,0,0,2.24-2,3.25,3.25,0,0,0-1.26-3.26,29.66,29.66,0,0,0-3-1.89c-.85-.51-1.76-.92-2.59-1.46a7,7,0,0,1-3.34-7.77c.52-2.72,2.59-4.65,5.85-5.19a13.3,13.3,0,0,1,4.2,0C175.91,67.76,178,70.77,177.62,74.67Z"/></svg>