<svg id="duProprio" xmlns="http://www.w3.org/2000/svg" viewBox="0 0 200 100"><defs><style>.cls-1{fill:#999}.cls-2{fill:#333}.cls-3{fill:#666}.cls-4{fill:#ccc}</style></defs><title>Artboard 1</title><g id="GY2gmc"><path d="M163.36 53.76a10.09 10.09 0 0 1-.85 2.14 6.44 6.44 0 0 1-6.77 2.77 5.87 5.87 0 0 1-4.81-4.9 5.94 5.94 0 0 1 5-6.92 6.3 6.3 0 0 1 6.68 2.85 9.79 9.79 0 0 1 .79 2.06zm-9.25-1a3.07 3.07 0 0 0 3 3.23 3 3 0 0 0 3-3.16 3.08 3.08 0 0 0-3-3.21 3 3 0 0 0-3 3.1z"/><path class="cls-1" d="M45.29 40l3.35-3.38c.14-.14.26-.29.39-.44h.18a19.12 19.12 0 0 0 1.47 1.53c.72.77 1.53 1.45 2.21 2.27zM36 49.21c.93-.82 1.76-1.74 2.65-2.6l1.17-1.14v3.83H36z"/><path d="M74.5 57.09a6.75 6.75 0 0 1-.69.77 4.82 4.82 0 0 1-6.17-.39 6.34 6.34 0 0 1-1.8-5.41 5.65 5.65 0 0 1 2.23-4.3 4.85 4.85 0 0 1 6.38.49 1.09 1.09 0 0 0 .13.11.68.68 0 0 0 .08-.5v-3.78c0-.34.09-.45.44-.44h2.5c.31 0 .38.1.38.39v14.2c0 .31-.12.38-.4.37h-2.5c-.36 0-.44-.13-.42-.45s0-.66 0-1zm-5.39-4.18c0 .12 0 .36.06.6a2.92 2.92 0 0 0 2.22 2.43 2.64 2.64 0 0 0 2.83-1.28 3.6 3.6 0 0 0 0-3.69 2.64 2.64 0 0 0-4.22-.52 3.38 3.38 0 0 0-.89 2.46zm59.41 4.33a.78.78 0 0 0 0 .43v3.78c0 .43-.14.53-.54.51h-2.32c-.35 0-.46-.08-.46-.45V47.45c0-.35.08-.47.45-.46h2.41c.37 0 .47.12.45.47s0 .66 0 1c.25-.24.46-.44.68-.63a4.84 4.84 0 0 1 6.79.7 7.06 7.06 0 0 1 0 8.49c-1.81 2.14-5.36 2.37-7.16.36-.1-.04-.16-.15-.3-.14zm5.48-4.52a3.09 3.09 0 0 0-.41-1.68 2.62 2.62 0 0 0-2.45-1.45 2.54 2.54 0 0 0-2.35 1.53 3.61 3.61 0 0 0 .1 3.53 2.66 2.66 0 0 0 4.18.58 3.23 3.23 0 0 0 .93-2.51zm-38.65 0a1 1 0 0 0-.06.52v5c0 .29-.07.4-.38.39h-2.64c-.3 0-.35-.11-.35-.37v-14.2c0-.29.07-.4.37-.39h6.37a5.22 5.22 0 0 1 1 10.37 11.92 11.92 0 0 1-2.54.19.62.62 0 0 1-.47-.23zm-.06-3.8v2c0 .22.05.34.3.33.94 0 1.88 0 2.82-.05a2.23 2.23 0 0 0 2.1-2.13 2.09 2.09 0 0 0-1.91-2.35 22.22 22.22 0 0 0-3.09-.07c-.24 0-.22.16-.22.31v1.96zM118 58.77a6 6 0 0 1-6.13-4.85 6.07 6.07 0 0 1 5.69-7.18 6.2 6.2 0 0 1 6.22 3.5 6.06 6.06 0 0 1-5.14 8.53c-.17.01-.38 0-.64 0zm3-5.93a3.07 3.07 0 0 0-3-3.26 3 3 0 0 0-3 3.13 3.08 3.08 0 0 0 3 3.23 3 3 0 0 0 3.09-3.1zM86.83 57a4.5 4.5 0 0 1-2.46 1.7 3.75 3.75 0 0 1-4.81-3.64c-.08-2.58 0-5.16 0-7.74 0-.23.07-.32.31-.32h2.69c.35 0 .3.2.3.42v5.87a3.85 3.85 0 0 0 .14 1.26 1.68 1.68 0 0 0 1.62 1.24 1.85 1.85 0 0 0 2-1.06 2.83 2.83 0 0 0 .24-1.19v-6.06c0-.38.1-.49.48-.48h2.46c.27 0 .37.07.37.36v10.88c0 .29-.09.36-.37.36h-2.55c-.29 0-.41-.06-.39-.37s-.03-.73-.03-1.23z"/><path class="cls-2" d="M45.29 40H53a1.08 1.08 0 0 0 .35.47c.61.61 1.21 1.24 1.84 1.83.34.32.33.51 0 .84-1.89 1.86-3.76 3.75-5.64 5.63a1.11 1.11 0 0 0-.38.5h-.27a1 1 0 0 0-.34-.47l-5.66-5.66a1 1 0 0 0-.47-.34c.95-.94 1.89-1.88 2.86-2.8z"/><path d="M108.15 48.62a3.63 3.63 0 0 1 3.18-1.81c.3 0 .41 0 .4.35v2.73c0 .25-.07.33-.33.35-2.5.13-3.24 1.81-3.32 3.52-.07 1.45 0 2.91 0 4.37 0 .38-.1.49-.48.48h-2.32c-.41 0-.53-.1-.53-.52V47.35c0-.3.08-.3.29-.29h2.73c.22 0 .3.08.29.3v1.26zm33.62-.01A3.63 3.63 0 0 1 145 46.8c.31 0 .4.06.39.36v2.68c0 .25 0 .36-.34.38a3.31 3.31 0 0 0-3.32 3.62v4.28c0 .35-.09.47-.45.46h-2.5c-.28 0-.37-.08-.37-.36V47.34c0-.28.09-.37.37-.36h2.59c.28 0 .37.1.36.37s0 .81 0 1.21z"/><path class="cls-3" d="M49.29 49.32h-.08a1.11 1.11 0 0 1 .38-.5c1.88-1.88 3.75-3.76 5.64-5.63.33-.32.34-.52 0-.84-.63-.59-1.23-1.22-1.84-1.83A1.08 1.08 0 0 1 53 40h5.3c-.12.14-.23.28-.36.41l-2 2c-.13.13-.3.25-.1.45.84.81 1.61 1.69 2.51 2.44v.16a1.16 1.16 0 0 0-.08.57v3.24H54z"/><path class="cls-4" d="M49.29 49.32h9.13V58c0 .21.11.47-.18.6a.56.56 0 0 0-.2-.34l-3.95-4a.64.64 0 0 0-.37-.24 1.24 1.24 0 0 0-.4-.54l-3.61-3.62a1.36 1.36 0 0 1-.42-.54z"/><path class="cls-3" d="M49 49.3l-4.19 4.23c-.15.15-.34.27-.37.5-.26.05-.4.27-.57.43l-4.07 4v-9.19H49z"/><path d="M146.46 52.78v-5.32c0-.36.1-.47.46-.46h2.46c.27 0 .37.09.37.36v10.87c0 .28-.09.37-.37.36h-2.41c-.4 0-.52-.09-.51-.5.01-1.76 0-3.54 0-5.31z"/><path class="cls-3" d="M53.69 54a.64.64 0 0 1 .37.24l3.95 4a.56.56 0 0 1 .2.34h-9.05l3-3.08z"/><path class="cls-1" d="M39.84 58.49l4.07-4c.17-.17.31-.38.57-.43 1 .86 1.85 1.81 2.77 2.73A22.23 22.23 0 0 1 49 58.58h-8.68c-.17 0-.32.04-.48-.09z"/><path d="M148.11 46.19h-1.27c-.42 0-.39-.11-.38-.39v-1.82c0-.25.07-.35.33-.35h2.64c.24 0 .32.09.31.32v1.91c0 .27-.11.33-.36.33-.38-.01-.84 0-1.27 0z"/><path class="cls-1" d="M58.42 49.3h-.1v-3.24a1.16 1.16 0 0 1 .08-.57l3.69 3.83z"/><path class="cls-4" d="M58.36 45.31c-.9-.75-1.67-1.63-2.51-2.44-.2-.2 0-.32.1-.45l2-2c.13-.13.24-.27.36-.41a.46.46 0 0 1 .1.34v4.74a1.3 1.3 0 0 1-.05.22z"/><path d="M48.94 49.3h-9.09v-3.83c.86-.9 1.73-1.79 2.64-2.64a1 1 0 0 1 .47.34l5.66 5.66a1 1 0 0 1 .32.47z"/></g></svg>