<svg id="Layer_1" data-name="Layer 1" xmlns="http://www.w3.org/2000/svg" viewBox="0 0 300 150"><defs><style>.cls-1{fill:none;}</style></defs><title>Artboard 1 copy 2</title><path d="M175.82,63.12a8.18,8.18,0,0,1,1.21-.18c6.88,0,13.77,0,20.65.07a18.41,18.41,0,0,1,5.13.89,6,6,0,0,1,4.37,5.63c0,2.3-1.64,4.3-4.37,5.22-1.38.47-2.82.78-4.51,1.23l1.46,2.07c1.59,2.26,3.19,4.51,4.75,6.79a5.74,5.74,0,0,0,4.93,2.78,1.13,1.13,0,0,1,.9.58,6.3,6.3,0,0,1-1.14.21c-2.37,0-4.74.09-7.11,0a3,3,0,0,1-2-1.09q-3.62-4.89-7-9.95a2.68,2.68,0,0,0-2.76-1.42c-1.16.12-2.34,0-3.62,0,0,3-.13,5.88.05,8.71a3.1,3.1,0,0,0,2.83,2.75l2.18.41,0,.4H175.84l-.06-.39,2-.38c1.95-.41,3-1.32,3.09-3.25q.18-8.54,0-17.07c0-1.94-1.15-2.89-3.07-3.28-.64-.13-1.3-.18-2-.27Zm10.81,12.23c3.52-.17,6.85-.11,10.12-.55,2.95-.39,4.27-2.38,4.25-5.39s-1.47-5-4.38-5.31c-3.27-.32-6.59-.07-10-.07C186.62,67.59,186.62,71.28,186.62,75.35Z"/><path d="M60.31,87.66c3.77-.28,7.55.82,10.94-1.48,3.22-2.18,4.32-5.71,5.64-9.12l.43.12v11.1h-28l-.07-.43c.48-.08,1-.17,1.43-.22,2.62-.27,3.95-1.5,4-4.12q.13-7.87,0-15.74c0-2.61-1.4-3.83-4-4.06-.39,0-.78-.07-1.16-.14-.06,0-.1-.17-.27-.45H66.43l.08.34a9.41,9.41,0,0,1-1.37.24c-3.8.11-4.92,1.24-4.92,5q0,8.55,0,17.09C60.22,86.38,60.27,86.93,60.31,87.66Z"/><path d="M129.45,63.1H146.9l.05.43c-.65.06-1.3.17-1.95.18-3.17.08-4.52,1.39-4.54,4.58,0,4.17,0,8.35,0,12.52s2,6.58,6,7.08a18.43,18.43,0,0,0,6.35-.37c3.6-.84,5.43-3.45,5.57-7.51.11-3.32.11-6.66,0-10-.12-3.51-1.5-6.06-5.58-6.3-.25,0-.48-.15-.7-.56h12.67a10.68,10.68,0,0,1-1.32.65c-2.89.83-4.23,2.47-4.28,5.49-.06,3.33,0,6.65,0,10,0,5.63-2.18,8.35-7.71,9.32a21.42,21.42,0,0,1-11.34-.82c-3.55-1.32-5.1-3.54-5.12-7.3s0-7.56,0-11.33c0-4-.94-5.06-4.95-5.44a3.07,3.07,0,0,1-.61-.19Z"/><path d="M230.09,88.26H219.71c.19-.33.24-.56.34-.58,3.79-.86,5.34-3.9,6.74-7,2.47-5.5,4.87-11,7.3-16.55.26-.6.58-1.17,1.06-2.12.52.89.89,1.42,1.16,2q4.28,9.29,8.53,18.6c1.18,2.59,2.14,5.37,6,5.08l-.24.52H236.08l0-.39c.77-.06,1.55-.11,2.32-.18,2.07-.21,2.58-1,1.91-2.93-1.46-4.17-1.46-4.17-5.9-4.17h-4.57c-2.18,0-2.67.43-3.15,2.78a3.43,3.43,0,0,0,2,4c.49.2,1,.35,1.51.52ZM233,68.6l-4.79,10.9h9.68Z"/><path d="M121.3,88.25H106.72l0-.46c.83-.07,1.66-.11,2.49-.2,2-.23,2.43-1,1.79-2.86-1.45-4.22-1.45-4.22-5.86-4.22-1.75,0-3.5.06-5.25,0a1.79,1.79,0,0,0-2,1.3c-1.25,3.09-.59,4.67,2.6,5.84a4.93,4.93,0,0,1,.74.57H90.37c.2-.26.29-.52.43-.55,3.17-.67,4.82-3,6-5.68,2.6-5.69,5.09-11.43,7.64-17.14.37-.84.79-1.65,1.39-2.9.55,1,.89,1.56,1.16,2.15,2.74,5.94,5.44,11.89,8.19,17.82,1.28,2.76,2,6.13,6.43,5.76Zm-12.71-8.69-4.93-11-4.8,11Z"/><path class="cls-1" d="M186.62,75.35V64c3.41,0,6.73-.25,10,.07,2.91.29,4.36,2.4,4.38,5.31s-1.31,5-4.25,5.39C193.48,75.24,190.14,75.18,186.62,75.35Z"/><path class="cls-1" d="M233,68.6l4.9,10.9h-9.68Z"/><path class="cls-1" d="M108.58,79.56H98.85l4.8-11Z"/></svg>