<svg id="Layer_1" data-name="Layer 1" xmlns="http://www.w3.org/2000/svg" viewBox="0 0 300 150"><title>Artboard 1 copy</title><path d="M199.53,49.73a17.38,17.38,0,0,0-2.12-1,17,17,0,0,0-2.78-.8,20.72,20.72,0,0,0-3.85-.33,16.09,16.09,0,0,0-3.61.65,10.85,10.85,0,0,0-3.7,2A9.47,9.47,0,0,0,181,53.6a10.86,10.86,0,0,0-.91,4.55,9.86,9.86,0,0,0,.48,3.17,9.25,9.25,0,0,0,1.33,2.56,15,15,0,0,0,2,2.19q1.13,1,2.44,2.09,1.1.91,2.06,1.76a16.45,16.45,0,0,1,1.68,1.74,8.67,8.67,0,0,1,1.16,1.78,4.44,4.44,0,0,1,.43,1.91,4.27,4.27,0,0,1-.5,2.11A5.33,5.33,0,0,1,189.86,79,5.55,5.55,0,0,1,188,80a7.07,7.07,0,0,1-2.14.33,9.93,9.93,0,0,1-1-.05A6.77,6.77,0,0,1,181,79a8.38,8.38,0,0,1-2.92-3.65h-.4a20.33,20.33,0,0,1-.45,2.9,10,10,0,0,1-.53,1.87l-.12.34.7.41a16.87,16.87,0,0,0,4.9,1.8,23,23,0,0,0,4,.34,16.2,16.2,0,0,0,4.63-.66,11.18,11.18,0,0,0,3.9-2A9.73,9.73,0,0,0,197.43,77a10.53,10.53,0,0,0,1-4.68,8.84,8.84,0,0,0-.48-3,10.82,10.82,0,0,0-1.26-2.46,12.73,12.73,0,0,0-1.84-2.11q-1.08-1-2.21-1.94-1.3-1.07-2.56-2.19a17.07,17.07,0,0,1-1.84-1.86A7.23,7.23,0,0,1,187.12,57a4.59,4.59,0,0,1,0-3.52A4.08,4.08,0,0,1,188,52a5.11,5.11,0,0,1,1.63-1,5.86,5.86,0,0,1,2.24-.4,6.73,6.73,0,0,1,3.89,1,8.36,8.36,0,0,1,2.92,3.65h.41a15.68,15.68,0,0,1,1.34-4.87,3.41,3.41,0,0,0-1-.64m-22.35,0a16.53,16.53,0,0,0-4.9-1.8,20.7,20.7,0,0,0-3.84-.33,16.09,16.09,0,0,0-3.61.65,10.81,10.81,0,0,0-3.7,2,9.4,9.4,0,0,0-2.46,3.32,10.84,10.84,0,0,0-.91,4.55,9.82,9.82,0,0,0,.48,3.17,9.29,9.29,0,0,0,1.33,2.56,15,15,0,0,0,2,2.19q1.13,1,2.44,2.09,1.1.91,2.06,1.76a16.45,16.45,0,0,1,1.68,1.74,8.62,8.62,0,0,1,1.16,1.78,4.44,4.44,0,0,1,.43,1.91,4.28,4.28,0,0,1-.5,2.11A5.32,5.32,0,0,1,167.51,79a5.53,5.53,0,0,1-1.83,1,7.06,7.06,0,0,1-2.14.33,10,10,0,0,1-1-.05A6.76,6.76,0,0,1,158.66,79a8.36,8.36,0,0,1-2.92-3.65h-.4a20.52,20.52,0,0,1-.48,3,9.78,9.78,0,0,1-.47,1.65l-.14.42.69.4a16.9,16.9,0,0,0,4.9,1.8,23,23,0,0,0,4,.34,16.24,16.24,0,0,0,4.63-.66,11.19,11.19,0,0,0,3.9-2A9.73,9.73,0,0,0,175.08,77a10.54,10.54,0,0,0,1-4.68,8.84,8.84,0,0,0-.48-3,10.64,10.64,0,0,0-1.26-2.46,12.78,12.78,0,0,0-1.83-2.11q-1.08-1-2.21-1.94-1.3-1.07-2.56-2.19a17.18,17.18,0,0,1-1.84-1.86A7.27,7.27,0,0,1,164.77,57a4.59,4.59,0,0,1-.05-3.52,4.08,4.08,0,0,1,1-1.46,5.11,5.11,0,0,1,1.63-1,5.86,5.86,0,0,1,2.24-.4,6.74,6.74,0,0,1,3.89,1,8.4,8.4,0,0,1,2.92,3.65h.42a8.81,8.81,0,0,1,2-4.46,10.42,10.42,0,0,0-1.64-1.06m-71.32,1a10.29,10.29,0,0,0-1.66-.94,20,20,0,0,0-2.33-1A20.34,20.34,0,0,0,98.82,48a29.1,29.1,0,0,0-4.53-.33,17.77,17.77,0,0,0-7.39,1.52,17.53,17.53,0,0,0-5.8,4.19,19,19,0,0,0-3.76,6.23,22,22,0,0,0-.62,13.06,13.77,13.77,0,0,0,2.48,5.06,12.62,12.62,0,0,0,4.76,3.69,17.94,17.94,0,0,0,7.54,1.39,24.16,24.16,0,0,0,3.94-.25,11.34,11.34,0,0,0,4.92-1.83l.43-.3a31.69,31.69,0,0,0,1.28-5h-.51a8.88,8.88,0,0,1-5.4,4.12,11.23,11.23,0,0,1-3.45.5C86.64,80,83,75.54,83,68c0-9.94,5.71-17.27,12.9-17.49a9.09,9.09,0,0,1,4.55,1.08,9.36,9.36,0,0,1,3.65,3.61h.69a25.73,25.73,0,0,0,1.05-4.54M224,48.4c-3.07.09-6.42.19-10.32.19s-8.75-.32-8.75-.32a7.84,7.84,0,0,0-2.1,4.06,30.92,30.92,0,0,1,3.41-.1c.79,0,2.48,0,3.17,0-.53,4.9-4.2,21.64-6.66,30.4,1.44,0,2.79.11,4,.17,1.42.07,2.09.13,3.36.24.25-1.87.67-4.76,1.9-10.47,2.86-13.25,3.84-17.63,4.73-20.34,1.09,0,1.83,0,2.72,0,1.3,0,3.13.09,3.7.12ZM128.78,82.75c3.28-11.43,7-34.12,7-34.12-1.67-.07-3.82-.28-3.82-.28a29.13,29.13,0,0,1-.4,3.62c-.22,1.27-.46,2.53-.71,4s-.53,3.08-.84,4.74-.61,3.19-.91,4.79-.58,3-.87,4.31q-.35,1.68-.78,3.35-2.15-3.25-4.16-6.6Q122,64.42,120.56,62t-2.82-4.91q-1.34-2.35-2.62-4.74-1.1-2-2.11-4.12a15.2,15.2,0,0,0-3.91,0q-.44,3.18-1,6.35-.58,3.42-1.22,6.92t-1.31,6.89q-.62,3.14-1.27,6.28s-.86,4.41-1.93,8.25a41.4,41.4,0,0,1,4.14-.17c.12-1,.29-2.55.6-4.49s.67-4.06,1.07-6.37.84-4.69,1.31-7.12.84-4.28,1.29-6.33c2.58,4.2,4.92,8,7.41,12.14s4.68,8.13,6.9,12.39c0,0,1.94-.09,3.89-.2m17-30.31s4-.17,10.46.13a12.93,12.93,0,0,1,2.37-3.78c-13.69.27-19.33,0-19.33,0q-.2,1.59-.67,4.31-.52,3-1.09,6-.62,3.25-1.34,6.79t-1.46,6.79c-.5,2.17-1,4.24-1.48,6s-.77,3-1.1,4c1.32-.07,2.72-.06,4.33-.08l4.52-.07,4.58,0c1.7,0,2.87,0,4.86.08a11.81,11.81,0,0,0,2-4.62c-4.33,1.57-12.11,1.25-12.11,1.25.26-2.22.7-4.26,1.11-6.46s.85-4.39,1.31-6.57c0,0,6.26,0,9.4.37a22.87,22.87,0,0,1,.78-3.79,92,92,0,0,1-9.49.19q.51-2.47,1.07-4.94c.45-2,.74-3.64,1.3-5.62M83.36,95.49c84.49-7.35,124.78-2.11,124.78-2.11l1.09-5.54s-44-5-125.13,5.85Zm-2.13,5.24c84.69-4.66,125,1.9,125,1.9l1.16-5.52S163.5,90.73,82,99Z"/></svg>