<svg data-name="yu centrik" xmlns="http://www.w3.org/2000/svg" viewBox="0 0 200 100"><title>Artboard 1</title><path d="M98.94 76.23H72.8c-.38 0-.48-.05-.48-.46V23.61c0-.43.11-.49.51-.49h52.22c.4 0 .51.05.51.49v52.16c0 .41-.1.47-.48.47zM98.3 47.1c0 3.57 1.25 5.63 4.14 6.91a6.1 6.1 0 0 0 8.2-3 40.75 40.75 0 0 0 1.81-4.6c.84-2.59 1.9-5.11 2.52-7.76a32.88 32.88 0 0 1 1.41-5.15 4.39 4.39 0 0 0 .25-1.12 1.69 1.69 0 0 0-1.32-2.05c-.7-.2-1.43-.29-2.14-.44a.2.2 0 0 0-.27.13 4.08 4.08 0 0 0-.65 2.22 2.77 2.77 0 0 1-.17 1c-.86 3-1.68 6-2.7 9a64.94 64.94 0 0 1-2.51 6.61 4.39 4.39 0 0 1-1.49 1.94 1.48 1.48 0 0 1-2.25-.54 3.62 3.62 0 0 1-.32-.79 9.53 9.53 0 0 1-.17-4.06 47.93 47.93 0 0 1 2.92-11.16 9.75 9.75 0 0 0 .52-1.64 1.8 1.8 0 0 0-1.16-2.37 4.79 4.79 0 0 0-1-.32 1.43 1.43 0 0 0-1.76 1 83.47 83.47 0 0 0-2.65 9.35 29.87 29.87 0 0 0-1.21 6.84zm-7.4-7.25a34 34 0 0 1-5.15-6.54 23.61 23.61 0 0 0-1.82-2.66 1.68 1.68 0 0 0-3 .59 2.32 2.32 0 0 0 .18 1.95 19.51 19.51 0 0 0 3.11 4.13 24.61 24.61 0 0 1 2.2 2.44 20.62 20.62 0 0 0 3 3.4c.23.18.11.33 0 .5a27.49 27.49 0 0 0-.92 2.72c-.58 2.11-.88 4.28-1.5 6.38-.26.88-.17 1.07.63 1.55a4.3 4.3 0 0 0 1.18.45.77.77 0 0 0 .5 0 2.09 2.09 0 0 0 1.37-1.41c.17-.63.44-1.23.58-1.86a71.75 71.75 0 0 1 2.4-8.4 65.89 65.89 0 0 1 3.79-8.37 13.67 13.67 0 0 0 1.28-3.19 1.23 1.23 0 0 0-.05-1.05 2 2 0 0 0-3.19-.16 11.09 11.09 0 0 0-1 1.55 36.22 36.22 0 0 0-1.71 4 19.74 19.74 0 0 1-1.88 3.98zm8 21.57h6c4.77-.11 9.53.27 14.3 0 1.05-.05 2.11 0 3.17 0 .22 0 .47 0 .5-.26s-.25-.34-.48-.34h-1.38c-3.61.11-7.23.18-10.84 0-1.59-.06-3.19 0-4.79 0-6.46 0-12.92.1-19.38.12-3 0-6 0-9.06-.05-.23 0-.52 0-.52.29s.28.3.51.3h.35c7.4.05 14.86.14 21.57-.06zm-4 7.23h.11c.45.69.91 1.37 1.33 2.08.19.32.46.24.71.22s.16-.3.16-.46v-3.17c0-.3 0-.44-.4-.43s-.43.08-.42.41v1.9a18.2 18.2 0 0 1-1.49-2.1c-.19-.32-.46-.24-.71-.22s-.15.3-.15.46v3.22c0 .33.13.37.4.36s.44 0 .42-.35c-.05-.63-.02-1.28-.02-1.92zm11.83 2.22l-.73-1.4c-.09-.17-.13-.28.08-.41a1.08 1.08 0 0 0 .44-1.36 1.17 1.17 0 0 0-1.2-.82h-1.27c-.42 0-.39.09-.38.39v3.17c0 .32 0 .52.43.52s.37-.26.37-.51v-.75c0-.25-.1-.34.13-.37s.42-.07.54.2a8.41 8.41 0 0 1 .36.78c.15.58.5.74 1.17.56zm8 0c-.41-.7-.79-1.38-1.2-2a.46.46 0 0 1 .06-.65c.35-.39.68-.8 1.06-1.26-.6-.09-1-.09-1.35.44a12.24 12.24 0 0 1-1 1.27v-1.33c0-.39-.05-.44-.4-.43s-.42.09-.42.42v3.22c0 .38.13.43.46.44s.37-.23.35-.47a1.24 1.24 0 0 1 .55-1.32 12.58 12.58 0 0 1 .63 1.12.91.91 0 0 0 1.16.55zm-23.87.06h1c.35 0 .38 0 .39-.33s-.09-.4-.39-.38-.73 0-1.09 0-.4-.09-.42-.41c0-.48.11-.67.6-.59h.63c.21 0 .41 0 .41-.36s-.16-.37-.42-.35-.58 0-.86 0-.33 0-.35-.31c0-.44 0-.74.59-.65.32.05.65 0 1 0s.33-.14.33-.38-.07-.34-.32-.33h-2c-.28 0-.36.09-.35.36v2.36c-.17 1.37-.17 1.37 1.15 1.37zm-5.35-2a3.05 3.05 0 0 1 0-.35c0-.37 0-.82.43-1a.72.72 0 0 1 .94.42c.13.23.49.16.69.07s0-.33 0-.49a1.46 1.46 0 0 0-1.66-.74 1.36 1.36 0 0 0-1.12 1.22 6.84 6.84 0 0 0 0 1.67 1.35 1.35 0 0 0 1.1 1.17 1.48 1.48 0 0 0 1.64-.67c.09-.16.26-.37.13-.53s-.4-.06-.6-.05-.18.18-.25.28a.66.66 0 0 1-.76.25.56.56 0 0 1-.45-.53zm14.59.3v1.32c0 .44.11.38.4.38s.41 0 .4-.37v-2.42c0-.42.07-.66.55-.57h.23c.27 0 .32-.11.31-.34s0-.37-.29-.36h-2.36c-.29 0-.29.16-.29.36s0 .33.31.35c.77 0 .77.06.77.84zm9.29-.33v-1.67c0-.33-.12-.38-.4-.37s-.42 0-.42.36v3.34c0 .33.14.37.41.37s.42 0 .41-.36c-.12-.57-.1-1.11-.1-1.67z"/><path d="M104.43 68c-.12-.43.12-.48.49-.46s.82 0 .8.57-.48.46-.85.51c-.54.1-.46-.25-.44-.62z"/></svg>